<?xml version="1.0" encoding="UTF-8" standalone="no"?>
<!-- Created with Inkscape (http://www.inkscape.org/) -->
<svg
   xmlns:svg="http://www.w3.org/2000/svg"
   xmlns="http://www.w3.org/2000/svg"
   xmlns:xlink="http://www.w3.org/1999/xlink"
   version="1.0"
   width="400"
   height="300"
   id="svg2">
  <defs
     id="defs4">
    <linearGradient
       id="linearGradient3319">
      <stop
         id="stop3321"
         style="stop-color:#ffffff;stop-opacity:1"
         offset="0" />
      <stop
         id="stop3323"
         style="stop-color:#ffffff;stop-opacity:0"
         offset="1" />
    </linearGradient>
    <linearGradient
       id="linearGradient3239">
      <stop
         id="stop3241"
         style="stop-color:#ffffff;stop-opacity:1"
         offset="0" />
      <stop
         id="stop3243"
         style="stop-color:#ffffff;stop-opacity:0"
         offset="1" />
    </linearGradient>
    <linearGradient
       id="linearGradient3269">
      <stop
         id="stop3271"
         style="stop-color:#000000;stop-opacity:1"
         offset="0" />
      <stop
         id="stop3273"
         style="stop-color:#000000;stop-opacity:0"
         offset="1" />
    </linearGradient>
    <linearGradient
       id="linearGradient3259">
      <stop
         id="stop3261"
         style="stop-color:#000000;stop-opacity:1"
         offset="0" />
      <stop
         id="stop3263"
         style="stop-color:#000000;stop-opacity:0"
         offset="1" />
    </linearGradient>
    <linearGradient
       id="linearGradient3839">
      <stop
         id="stop3841"
         style="stop-color:#1c0953;stop-opacity:1"
         offset="0" />
      <stop
         id="stop3843"
         style="stop-color:#2e0b8e;stop-opacity:0"
         offset="1" />
    </linearGradient>
    <linearGradient
       id="linearGradient8234">
      <stop
         id="stop8236"
         style="stop-color:#f6a5a5;stop-opacity:1"
         offset="0" />
      <stop
         id="stop8238"
         style="stop-color:#8b2525;stop-opacity:0"
         offset="1" />
    </linearGradient>
    <linearGradient
       id="linearGradient8192">
      <stop
         id="stop8194"
         style="stop-color:#ffd3d3;stop-opacity:1"
         offset="0" />
      <stop
         id="stop8196"
         style="stop-color:#ffd3d3;stop-opacity:0"
         offset="1" />
    </linearGradient>
    <linearGradient
       id="linearGradient7000">
      <stop
         id="stop7002"
         style="stop-color:#2a0e7d;stop-opacity:1"
         offset="0" />
      <stop
         id="stop7004"
         style="stop-color:#080928;stop-opacity:1"
         offset="1" />
    </linearGradient>
    <linearGradient
       id="linearGradient18230">
      <stop
         id="stop18232"
         style="stop-color:#ffffff;stop-opacity:1"
         offset="0" />
      <stop
         id="stop18234"
         style="stop-color:#ffffff;stop-opacity:0"
         offset="1" />
    </linearGradient>
    <linearGradient
       id="linearGradient38821">
      <stop
         id="stop38823"
         style="stop-color:#ffffff;stop-opacity:0.56185567"
         offset="0" />
      <stop
         id="stop38825"
         style="stop-color:#ffffff;stop-opacity:0.36082473"
         offset="1" />
    </linearGradient>
    <radialGradient
       cx="336.58673"
       cy="245.89554"
       r="48.47176"
       fx="336.58673"
       fy="245.89554"
       id="radialGradient3521"
       xlink:href="#linearGradient3259"
       gradientUnits="userSpaceOnUse"
       gradientTransform="matrix(1,0,0,0.1716577,0,203.68568)" />
    <linearGradient
       x1="395.15976"
       y1="223.55656"
       x2="83.500496"
       y2="202.99347"
       id="linearGradient2437"
       xlink:href="#linearGradient3269"
       gradientUnits="userSpaceOnUse"
       gradientTransform="matrix(0.65,0,0,1.8275862,183.27176,-156.58303)" />
    <linearGradient
       x1="220.97403"
       y1="300"
       x2="221.54358"
       y2="263.26593"
       id="linearGradient2453"
       xlink:href="#linearGradient3839"
       gradientUnits="userSpaceOnUse"
       gradientTransform="matrix(1,0,0,1.1690141,0,-50.704225)" />
    <radialGradient
       cx="289.09949"
       cy="219.56821"
       r="200.823"
       fx="289.09949"
       fy="219.56821"
       id="radialGradient2456"
       xlink:href="#linearGradient7000"
       gradientUnits="userSpaceOnUse"
       gradientTransform="matrix(1.6454644,7.1238331e-3,-6.1557945e-3,1.421868,-219.09178,-136.65878)" />
    <radialGradient
       cx="898.28961"
       cy="1270.9669"
       r="400"
       fx="898.28961"
       fy="1270.9669"
       id="radialGradient2459"
       xlink:href="#linearGradient18230"
       gradientUnits="userSpaceOnUse"
       gradientTransform="matrix(8.0924854e-2,0.4445736,-0.1585603,4.7761207e-2,176.41796,-403.84353)" />
    <linearGradient
       x1="314.5267"
       y1="70.352402"
       x2="361.7261"
       y2="65.60788"
       id="linearGradient2461"
       xlink:href="#linearGradient8234"
       gradientUnits="userSpaceOnUse"
       gradientTransform="translate(100.36496,-19.708029)" />
    <linearGradient
       x1="1050.3026"
       y1="-83.792"
       x2="1068.3805"
       y2="-67.064552"
       id="linearGradient2463"
       xlink:href="#linearGradient38821"
       gradientUnits="userSpaceOnUse"
       gradientTransform="matrix(1.2881724,-0.2289817,0.2979574,1.1508587,-892.23374,373.18492)" />
    <linearGradient
       x1="432.21594"
       y1="45.248287"
       x2="493.56543"
       y2="70.795731"
       id="linearGradient2465"
       xlink:href="#linearGradient8192"
       gradientUnits="userSpaceOnUse"
       gradientTransform="translate(8.1017906,-20.255475)" />
    <radialGradient
       cx="233.50349"
       cy="235.78654"
       r="17.170622"
       fx="233.50349"
       fy="235.78654"
       id="radialGradient3245"
       xlink:href="#linearGradient3239"
       gradientUnits="userSpaceOnUse"
       gradientTransform="matrix(1,0,0,1.1741337,0,-41.058394)" />
    <radialGradient
       cx="233.50349"
       cy="235.78654"
       r="17.170622"
       fx="233.50349"
       fy="235.78654"
       id="radialGradient3249"
       xlink:href="#linearGradient3239"
       gradientUnits="userSpaceOnUse"
       gradientTransform="matrix(1,0,0,1.1741337,0,-41.058394)" />
    <radialGradient
       cx="247.45674"
       cy="221.97566"
       r="96.53376"
       fx="247.45674"
       fy="221.97566"
       id="radialGradient3325"
       xlink:href="#linearGradient3319"
       gradientUnits="userSpaceOnUse"
       gradientTransform="matrix(1,0,0,0.359882,0,142.09061)" />
  </defs>
  <g
     transform="matrix(0.767829,0,0,0.767829,326.13296,-117.32514)"
     id="g18278" />
  <g
     transform="matrix(0.767829,0,0,0.767829,325.59726,-246.98014)"
     id="g16079" />
  <g
     id="g3523">
    <g
       id="background">
      <rect
         width="397.81662"
         height="301.77588"
         x="1.6679568"
         y="-0.92961025"
         id="rect12652"
         style="opacity:0.0534884;fill:url(#radialGradient2459);fill-opacity:1;fill-rule:nonzero;stroke:none;stroke-width:3.00000024;stroke-linecap:round;stroke-linejoin:round;stroke-miterlimit:4;stroke-dasharray:none;stroke-dashoffset:0;stroke-opacity:1" />
      <rect
         width="401.646"
         height="302.13947"
         x="-0.27791145"
         y="-1.4831747"
         id="rect2160"
         style="fill:url(#radialGradient2456);fill-opacity:1;fill-rule:nonzero;stroke:none;stroke-width:3.00000024;stroke-linecap:round;stroke-linejoin:round;stroke-miterlimit:4;stroke-dasharray:none;stroke-dashoffset:0;stroke-opacity:1" />
      <rect
         width="400.9426"
         height="47.270218"
         x="-1.8336418e-06"
         y="252.72978"
         id="rect3047"
         style="fill:url(#linearGradient2453);fill-opacity:1;stroke:none;stroke-width:1.29999995;stroke-linecap:round;stroke-miterlimit:4;stroke-dasharray:none;stroke-dashoffset:0;stroke-opacity:1" />
      <path
         d="M 384.99599,245.89554 A 48.40926,8.25805 0 1 1 288.17747,245.89554 A 48.40926,8.25805 0 1 1 384.99599,245.89554 z"
         transform="matrix(0.7235295,0,0,0.8103448,121.24761,65.856687)"
         id="path3257"
         style="opacity:0.26180258;fill:url(#radialGradient3521);fill-opacity:1;stroke:none;stroke-width:0.102;stroke-linecap:round;stroke-miterlimit:4;stroke-dasharray:none;stroke-dashoffset:0;stroke-opacity:1" />
      <g
         transform="matrix(-0.7346123,-0.214645,-0.3293401,0.983172,721.29173,266.65971)"
         id="g8476">
        <path
           d="M 411.33642,109.64258 L 411.33642,108.57784 L 411.33642,109.64258 z"
           id="path8478"
           style="opacity:0.28755362;fill:#ffffff;fill-opacity:0.75688076;fill-rule:nonzero;stroke:none;stroke-width:0.5;stroke-linecap:round;stroke-linejoin:round;stroke-miterlimit:4;stroke-dasharray:none;stroke-dashoffset:4;stroke-opacity:1" />
        <path
           d="M 456.74509,-1.4997602 L 435.56556,24.334932 L 416.0102,49.41444 L 415.44017,49.406211 L 415.71659,49.779988 L 415.56954,49.86995 L 415.64832,49.672144 L 434.90052,76.041241 L 454.04722,102.78851 L 474.91881,76.832651 L 495.59037,51.671901 L 495.84913,51.675631 L 495.72357,51.498641 L 495.70973,51.231651 L 495.37267,51.006957 L 476.67665,24.927983 L 456.74509,-1.4997602 z"
           id="path8480"
           style="fill:#6f0000;fill-opacity:1;stroke:url(#linearGradient2461);stroke-width:1.097;stroke-linecap:round;stroke-linejoin:round;stroke-miterlimit:4;stroke-dasharray:none;stroke-opacity:1" />
        <path
           d="M 457.54769,-1.4004622 L 436.36816,24.43423 L 416.8128,49.513738 L 416.24277,49.505509 L 416.51919,49.879286 L 416.37214,49.969248 L 416.45092,49.771442 L 435.70312,76.140536 L 454.84982,102.88781 L 475.72141,76.931946 L 496.39297,51.771202 L 496.65173,51.774925 L 496.52617,51.597943 L 496.51233,51.330953 L 496.17527,51.106255 L 477.47925,25.027281 L 457.54769,-1.4004622 z"
           id="path8482"
           style="fill:#6f0000;fill-opacity:1;stroke:none;stroke-width:1.09690964;stroke-linecap:round;stroke-linejoin:round;stroke-miterlimit:4;stroke-dasharray:none;stroke-opacity:0.67213111" />
        <rect
           width="7.1167879"
           height="18.613138"
           ry="0"
           x="456.8244"
           y="-2.0072923"
           id="rect8484"
           style="fill:#6f0000;fill-opacity:1;stroke:none;stroke-width:1.43299997;stroke-linecap:round;stroke-miterlimit:4;stroke-dasharray:none;stroke-dashoffset:0;stroke-opacity:0" />
        <path
           d="M 458.4983,-1.7537602 L 437.31877,24.080932 L 417.76341,49.16044 L 417.19338,49.152211 L 417.4698,49.525988 L 417.32275,49.61595 L 417.40153,49.418144 L 436.65373,75.787232 L 455.80043,102.5345 L 476.67202,76.578642 L 497.34358,51.417904 L 497.60234,51.421627 L 497.47678,51.244645 L 497.46294,50.977655 L 497.12588,50.752957 L 478.42986,24.673983 L 458.4983,-1.7537602 z"
           id="path8486"
           style="fill:#6f0000;fill-opacity:1;stroke:none;stroke-width:1.09690964;stroke-linecap:round;stroke-linejoin:round;stroke-miterlimit:4;stroke-dasharray:none;stroke-opacity:0.67213111" />
        <rect
           width="8.0291967"
           height="18.613138"
           ry="0"
           x="453.72223"
           y="84.124092"
           id="rect8488"
           style="fill:#6f0000;fill-opacity:1;stroke:none;stroke-width:1.43299997;stroke-linecap:round;stroke-miterlimit:4;stroke-dasharray:none;stroke-dashoffset:0;stroke-opacity:0" />
        <path
           d="M 463.51579,-1.5712792 L 442.33626,24.263413 L 422.7809,49.342921 L 422.21087,49.334692 L 422.48729,49.708469 L 422.34024,49.798431 L 422.41902,49.600625 L 441.67122,75.969711 L 460.81792,102.71699 L 481.68951,76.76112 L 502.36107,51.600385 L 502.61983,51.604108 L 502.49427,51.427126 L 502.48043,51.160136 L 502.14337,50.935438 L 483.44735,24.856464 L 463.51579,-1.5712792 z"
           id="path8490"
           style="fill:#cc0000;fill-opacity:1;stroke:#8d3e3e;stroke-width:1.09690964;stroke-linecap:round;stroke-linejoin:round;stroke-miterlimit:4;stroke-dasharray:none;stroke-opacity:0.67213111" />
        <path
           d="M 443.64188,75.840078 C 433.41137,62.001965 433.59422,61.710427 424.41498,50.025474 L 437.68757,32.740303 C 440.94545,28.584672 453.79409,13.237201 450.89333,16.49744 L 463.32567,1.7157608 C 469.06371,9.4654138 482.9579,27.745915 476.22731,18.549283 L 488.97188,36.199635 C 479.63223,39.314382 470.26918,45.748944 461.71869,52.942414 C 446.93843,65.37699 446.50255,74.161276 443.64188,75.840078 z"
           id="path8492"
           style="opacity:0.42918456;fill:url(#linearGradient2463);fill-opacity:1;fill-rule:evenodd;stroke:#9a2006;stroke-width:0;stroke-linecap:butt;stroke-linejoin:miter;stroke-miterlimit:4;stroke-dasharray:none;stroke-opacity:1" />
        <path
           d="M 463.29559,0.41433779 L 442.84699,25.249105 L 423.96621,49.357969 L 423.41623,49.350017 L 423.68263,49.709313 L 423.54083,49.795828 L 423.61674,49.605652 L 442.20486,74.954173 L 460.69034,100.66618 L 480.84152,75.71492 L 500.8003,51.528045 L 501.05046,51.531631 L 500.9292,51.361544 L 500.91488,51.104805 L 500.58976,50.888795 L 482.53873,25.819217 L 463.29559,0.41433779 z"
           id="path8494"
           style="fill:none;fill-opacity:1;stroke:url(#linearGradient2465);stroke-width:1.43299997;stroke-linecap:round;stroke-linejoin:round;stroke-miterlimit:4;stroke-dasharray:none;stroke-opacity:0.67213111" />
        <rect
           width="8.1291475"
           height="1.6774431"
           ry="0.83872157"
           x="415.33713"
           y="48.546753"
           id="rect8496"
           style="fill:#ffffff;fill-opacity:0.5442478;stroke:none;stroke-width:1.43299997;stroke-linecap:round;stroke-miterlimit:4;stroke-dasharray:none;stroke-dashoffset:0;stroke-opacity:0" />
      </g>
      <path
         d="M 540.84216,193.48268 A 43.090179,54.970181 0 1 1 454.6618,193.48268 A 43.090179,54.970181 0 1 1 540.84216,193.48268 z"
         transform="matrix(3.2383176,0,0,2.7522806,-1433.1225,-382.01757)"
         id="path4464"
         style="opacity:0.38842977;fill:#9c0f56;fill-opacity:0;stroke:none;stroke-width:1.29999995;stroke-linecap:round;stroke-miterlimit:4;stroke-dasharray:none;stroke-dashoffset:0;stroke-opacity:1" />
      <path
         d="M 250.58912,235.78654 A 17.085621,20.075605 0 1 1 216.41787,235.78654 A 17.085621,20.075605 0 1 1 250.58912,235.78654 z"
         transform="matrix(0.1274613,0.1339697,-0.9405794,0.9016077,571.74125,-5.5199629)"
         id="path2467"
         style="opacity:0.81404957;fill:url(#radialGradient3245);fill-opacity:1;fill-rule:nonzero;stroke:none;stroke-width:0.17;stroke-linecap:round;stroke-miterlimit:4;stroke-dasharray:none;stroke-dashoffset:0;stroke-opacity:1" />
      <path
         d="M 250.58912,235.78654 A 17.085621,20.075605 0 1 1 216.41787,235.78654 A 17.085621,20.075605 0 1 1 250.58912,235.78654 z"
         transform="matrix(-0.1816915,3.4387029e-2,-0.247073,-1.2792736,485.53572,480.41378)"
         id="path3247"
         style="opacity:0.80578512;fill:url(#radialGradient3249);fill-opacity:1;fill-rule:nonzero;stroke:none;stroke-width:0.17;stroke-linecap:round;stroke-miterlimit:4;stroke-dasharray:none;stroke-dashoffset:0;stroke-opacity:1" />
      <rect
         width="199.90176"
         height="301.84598"
         x="201.04082"
         y="-0.70693183"
         id="rect3267"
         style="opacity:0.6781116;fill:url(#linearGradient2437);fill-opacity:1;stroke:none;stroke-width:0.102;stroke-linecap:round;stroke-miterlimit:4;stroke-dasharray:none;stroke-dashoffset:0;stroke-opacity:1" />
    </g>
  </g>
</svg>
