<?xml version="1.0" encoding="UTF-8" standalone="no"?>
<!-- Created with Inkscape (http://www.inkscape.org/) -->
<svg
   xmlns:svg="http://www.w3.org/2000/svg"
   xmlns="http://www.w3.org/2000/svg"
   xmlns:xlink="http://www.w3.org/1999/xlink"
   version="1.0"
   width="400"
   height="300"
   id="svg2">
  <defs
     id="defs4">
    <linearGradient
       id="linearGradient3889">
      <stop
         id="stop3891"
         style="stop-color:#2a0e7d;stop-opacity:1"
         offset="0" />
      <stop
         id="stop3893"
         style="stop-color:#000000;stop-opacity:0"
         offset="1" />
    </linearGradient>
    <linearGradient
       id="linearGradient3877">
      <stop
         id="stop3879"
         style="stop-color:#ffffff;stop-opacity:1"
         offset="0" />
      <stop
         id="stop3881"
         style="stop-color:#ffffff;stop-opacity:0"
         offset="1" />
    </linearGradient>
    <linearGradient
       id="linearGradient3839">
      <stop
         id="stop3841"
         style="stop-color:#1c0953;stop-opacity:1"
         offset="0" />
      <stop
         id="stop3843"
         style="stop-color:#2e0b8e;stop-opacity:0"
         offset="1" />
    </linearGradient>
    <linearGradient
       id="linearGradient3715">
      <stop
         id="stop3717"
         style="stop-color:#000000;stop-opacity:1"
         offset="0" />
      <stop
         id="stop3719"
         style="stop-color:#000000;stop-opacity:0"
         offset="1" />
    </linearGradient>
    <linearGradient
       id="linearGradient8764">
      <stop
         id="stop8766"
         style="stop-color:#ffffff;stop-opacity:1"
         offset="0" />
      <stop
         id="stop8768"
         style="stop-color:#ffffff;stop-opacity:0"
         offset="1" />
    </linearGradient>
    <linearGradient
       id="linearGradient8234">
      <stop
         id="stop8236"
         style="stop-color:#f6a5a5;stop-opacity:1"
         offset="0" />
      <stop
         id="stop8238"
         style="stop-color:#8b2525;stop-opacity:0"
         offset="1" />
    </linearGradient>
    <linearGradient
       id="linearGradient8192">
      <stop
         id="stop8194"
         style="stop-color:#ffd3d3;stop-opacity:1"
         offset="0" />
      <stop
         id="stop8196"
         style="stop-color:#ffd3d3;stop-opacity:0"
         offset="1" />
    </linearGradient>
    <linearGradient
       id="linearGradient7000">
      <stop
         id="stop7002"
         style="stop-color:#2a0e7d;stop-opacity:1"
         offset="0" />
      <stop
         id="stop7004"
         style="stop-color:#000000;stop-opacity:1"
         offset="1" />
    </linearGradient>
    <linearGradient
       id="linearGradient18230">
      <stop
         id="stop18232"
         style="stop-color:#ffffff;stop-opacity:1"
         offset="0" />
      <stop
         id="stop18234"
         style="stop-color:#ffffff;stop-opacity:0"
         offset="1" />
    </linearGradient>
    <linearGradient
       id="linearGradient38821">
      <stop
         id="stop38823"
         style="stop-color:#ffffff;stop-opacity:0.56185567"
         offset="0" />
      <stop
         id="stop38825"
         style="stop-color:#ffffff;stop-opacity:0.36082473"
         offset="1" />
    </linearGradient>
    <radialGradient
       cx="898.28961"
       cy="1270.9669"
       r="400"
       fx="898.28961"
       fy="1270.9669"
       id="radialGradient3015"
       xlink:href="#linearGradient18230"
       gradientUnits="userSpaceOnUse"
       gradientTransform="matrix(8.0924854e-2,0.4445736,-0.1585603,4.7761207e-2,176.41796,-403.84353)" />
    <linearGradient
       x1="314.5267"
       y1="70.352402"
       x2="361.7261"
       y2="65.60788"
       id="linearGradient3069"
       xlink:href="#linearGradient8234"
       gradientUnits="userSpaceOnUse"
       gradientTransform="translate(100.36496,-19.708029)" />
    <linearGradient
       x1="1050.3026"
       y1="-83.792"
       x2="1068.3805"
       y2="-67.064552"
       id="linearGradient3071"
       xlink:href="#linearGradient38821"
       gradientUnits="userSpaceOnUse"
       gradientTransform="matrix(1.2881724,-0.2289817,0.2979574,1.1508587,-892.23374,373.18492)" />
    <linearGradient
       x1="432.21594"
       y1="45.248287"
       x2="493.56543"
       y2="70.795731"
       id="linearGradient3073"
       xlink:href="#linearGradient8192"
       gradientUnits="userSpaceOnUse"
       gradientTransform="translate(8.1017906,-20.255475)" />
    <radialGradient
       cx="193.55113"
       cy="161.93353"
       r="33.548862"
       fx="193.55113"
       fy="161.93353"
       id="radialGradient3117"
       xlink:href="#linearGradient8764"
       gradientUnits="userSpaceOnUse"
       gradientTransform="matrix(1,0,0,2.0230768,0,-165.67044)" />
    <radialGradient
       cx="289.2561"
       cy="224.28346"
       r="200.823"
       fx="289.2561"
       fy="224.28346"
       id="radialGradient3909"
       xlink:href="#linearGradient7000"
       gradientUnits="userSpaceOnUse"
       gradientTransform="matrix(1.4558916,6.1242324e-2,-5.1195989e-2,1.2170638,-152.71546,-102.93755)" />
    <radialGradient
       cx="193.55113"
       cy="161.93353"
       r="33.548862"
       fx="193.55113"
       fy="161.93353"
       id="radialGradient3685"
       xlink:href="#linearGradient8764"
       gradientUnits="userSpaceOnUse"
       gradientTransform="matrix(1,0,0,2.0230768,0,-165.67044)" />
    <linearGradient
       x1="440.22318"
       y1="12.001834"
       x2="458.65634"
       y2="87.496674"
       id="linearGradient3721"
       xlink:href="#linearGradient3715"
       gradientUnits="userSpaceOnUse" />
    <linearGradient
       x1="440.22318"
       y1="12.001834"
       x2="458.65634"
       y2="87.496674"
       id="linearGradient3819"
       xlink:href="#linearGradient3715"
       gradientUnits="userSpaceOnUse" />
    <linearGradient
       x1="440.22318"
       y1="12.001834"
       x2="458.65634"
       y2="87.496674"
       id="linearGradient3821"
       xlink:href="#linearGradient3715"
       gradientUnits="userSpaceOnUse" />
    <linearGradient
       x1="440.22318"
       y1="12.001834"
       x2="458.65634"
       y2="87.496674"
       id="linearGradient3823"
       xlink:href="#linearGradient3715"
       gradientUnits="userSpaceOnUse" />
    <linearGradient
       x1="440.22318"
       y1="12.001834"
       x2="458.65634"
       y2="87.496674"
       id="linearGradient3825"
       xlink:href="#linearGradient3715"
       gradientUnits="userSpaceOnUse" />
    <linearGradient
       x1="440.22318"
       y1="12.001834"
       x2="458.65634"
       y2="87.496674"
       id="linearGradient3827"
       xlink:href="#linearGradient3715"
       gradientUnits="userSpaceOnUse" />
    <linearGradient
       x1="440.22318"
       y1="12.001834"
       x2="458.65634"
       y2="87.496674"
       id="linearGradient3829"
       xlink:href="#linearGradient3715"
       gradientUnits="userSpaceOnUse" />
    <linearGradient
       x1="440.22318"
       y1="12.001834"
       x2="458.65634"
       y2="87.496674"
       id="linearGradient3831"
       xlink:href="#linearGradient3715"
       gradientUnits="userSpaceOnUse" />
    <linearGradient
       x1="440.22318"
       y1="12.001834"
       x2="458.65634"
       y2="87.496674"
       id="linearGradient3833"
       xlink:href="#linearGradient3715"
       gradientUnits="userSpaceOnUse" />
    <linearGradient
       x1="440.22318"
       y1="12.001834"
       x2="458.65634"
       y2="87.496674"
       id="linearGradient3835"
       xlink:href="#linearGradient3715"
       gradientUnits="userSpaceOnUse" />
    <linearGradient
       x1="440.22318"
       y1="12.001834"
       x2="458.65634"
       y2="87.496674"
       id="linearGradient3837"
       xlink:href="#linearGradient3715"
       gradientUnits="userSpaceOnUse" />
    <linearGradient
       x1="220.97403"
       y1="300"
       x2="221.54358"
       y2="263.26593"
       id="linearGradient3845"
       xlink:href="#linearGradient3839"
       gradientUnits="userSpaceOnUse"
       gradientTransform="matrix(1,0,0,1.1690141,0,-50.704225)" />
    <linearGradient
       x1="314.5267"
       y1="70.352402"
       x2="361.7261"
       y2="65.60788"
       id="linearGradient3869"
       xlink:href="#linearGradient8234"
       gradientUnits="userSpaceOnUse"
       gradientTransform="translate(100.36496,-19.708029)" />
    <linearGradient
       x1="1050.3026"
       y1="-83.792"
       x2="1068.3805"
       y2="-67.064552"
       id="linearGradient3871"
       xlink:href="#linearGradient38821"
       gradientUnits="userSpaceOnUse"
       gradientTransform="matrix(1.2881724,-0.2289817,0.2979574,1.1508587,-892.23374,373.18492)" />
    <linearGradient
       x1="432.21594"
       y1="45.248287"
       x2="493.56543"
       y2="70.795731"
       id="linearGradient3873"
       xlink:href="#linearGradient8192"
       gradientUnits="userSpaceOnUse"
       gradientTransform="translate(8.1017906,-20.255475)" />
    <radialGradient
       cx="201.04082"
       cy="273.80203"
       r="101.37469"
       fx="201.04082"
       fy="273.80203"
       id="radialGradient3883"
       xlink:href="#linearGradient3877"
       gradientUnits="userSpaceOnUse"
       gradientTransform="matrix(1,0,0,0.1348315,0,236.8849)" />
    <radialGradient
       cx="289.2561"
       cy="224.28346"
       r="200.823"
       fx="289.2561"
       fy="224.28346"
       id="radialGradient3887"
       xlink:href="#linearGradient3889"
       gradientUnits="userSpaceOnUse"
       gradientTransform="matrix(0.9582607,-0.5332817,0.3230501,0.5804928,149.72272,170.72787)" />
    <radialGradient
       cx="292.6445"
       cy="241.98091"
       r="200.823"
       fx="292.6445"
       fy="241.98091"
       id="radialGradient3964"
       xlink:href="#linearGradient7000"
       gradientUnits="userSpaceOnUse"
       gradientTransform="matrix(1.6454644,7.1238331e-3,-6.1557945e-3,1.421868,-219.09178,-136.65878)" />
  </defs>
  <g
     transform="matrix(0.767829,0,0,0.767829,326.13296,-117.32514)"
     id="g18278" />
  <g
     transform="matrix(0.767829,0,0,0.767829,325.59726,-246.98014)"
     id="g16079" />
  <g
     id="g3966">
    <rect
       width="397.81662"
       height="301.77588"
       x="1.6679568"
       y="-0.92961025"
       id="rect12652"
       style="opacity:0.0534884;fill:url(#radialGradient3015);fill-opacity:1;fill-rule:nonzero;stroke:none;stroke-width:3.00000024;stroke-linecap:round;stroke-linejoin:round;stroke-miterlimit:4;stroke-dasharray:none;stroke-dashoffset:0;stroke-opacity:1" />
    <rect
       width="401.646"
       height="302.13947"
       x="-0.27791145"
       y="-1.4831747"
       id="rect2160"
       style="fill:url(#radialGradient3964);fill-opacity:1;fill-rule:nonzero;stroke:none;stroke-width:3.00000024;stroke-linecap:round;stroke-linejoin:round;stroke-miterlimit:4;stroke-dasharray:none;stroke-dashoffset:0;stroke-opacity:1" />
    <rect
       width="400.9426"
       height="47.270218"
       x="-1.8336418e-06"
       y="252.72978"
       id="rect3047"
       style="opacity:1;fill:url(#linearGradient3845);fill-opacity:1;stroke:none;stroke-width:1.29999995;stroke-linecap:round;stroke-miterlimit:4;stroke-dasharray:none;stroke-dashoffset:0;stroke-opacity:1" />
    <g
       transform="matrix(-0.2411791,-0.8832997,-1.258308,0.336755,450.92594,673.40094)"
       id="g3847"
       style="opacity:0.10330577">
      <path
         d="M 411.33642,109.64258 L 411.33642,108.57784 L 411.33642,109.64258 z"
         id="path3849"
         style="opacity:0.28755362;fill:#ffffff;fill-opacity:0.75688076;fill-rule:nonzero;stroke:none;stroke-width:0.5;stroke-linecap:round;stroke-linejoin:round;stroke-miterlimit:4;stroke-dasharray:none;stroke-dashoffset:4;stroke-opacity:1" />
      <path
         d="M 456.74509,-1.4997602 L 435.56556,24.334932 L 416.0102,49.41444 L 415.44017,49.406211 L 415.71659,49.779988 L 415.56954,49.86995 L 415.64832,49.672144 L 434.90052,76.041241 L 454.04722,102.78851 L 474.91881,76.832651 L 495.59037,51.671901 L 495.84913,51.675631 L 495.72357,51.498641 L 495.70973,51.231651 L 495.37267,51.006957 L 476.67665,24.927983 L 456.74509,-1.4997602 z"
         id="path3851"
         style="fill:#6f0000;fill-opacity:1;stroke:url(#linearGradient3869);stroke-width:1.097;stroke-linecap:round;stroke-linejoin:round;stroke-miterlimit:4;stroke-dasharray:none;stroke-opacity:1" />
      <path
         d="M 457.54769,-1.4004622 L 436.36816,24.43423 L 416.8128,49.513738 L 416.24277,49.505509 L 416.51919,49.879286 L 416.37214,49.969248 L 416.45092,49.771442 L 435.70312,76.140536 L 454.84982,102.88781 L 475.72141,76.931946 L 496.39297,51.771202 L 496.65173,51.774925 L 496.52617,51.597943 L 496.51233,51.330953 L 496.17527,51.106255 L 477.47925,25.027281 L 457.54769,-1.4004622 z"
         id="path3853"
         style="fill:#6f0000;fill-opacity:1;stroke:none;stroke-width:1.09690964;stroke-linecap:round;stroke-linejoin:round;stroke-miterlimit:4;stroke-dasharray:none;stroke-opacity:0.67213111" />
      <rect
         width="7.1167879"
         height="18.613138"
         ry="0"
         x="456.8244"
         y="-2.0072923"
         id="rect3855"
         style="fill:#6f0000;fill-opacity:1;stroke:none;stroke-width:1.43299997;stroke-linecap:round;stroke-miterlimit:4;stroke-dasharray:none;stroke-dashoffset:0;stroke-opacity:0" />
      <path
         d="M 458.4983,-1.7537602 L 437.31877,24.080932 L 417.76341,49.16044 L 417.19338,49.152211 L 417.4698,49.525988 L 417.32275,49.61595 L 417.40153,49.418144 L 436.65373,75.787232 L 455.80043,102.5345 L 476.67202,76.578642 L 497.34358,51.417904 L 497.60234,51.421627 L 497.47678,51.244645 L 497.46294,50.977655 L 497.12588,50.752957 L 478.42986,24.673983 L 458.4983,-1.7537602 z"
         id="path3857"
         style="fill:#6f0000;fill-opacity:1;stroke:none;stroke-width:1.09690964;stroke-linecap:round;stroke-linejoin:round;stroke-miterlimit:4;stroke-dasharray:none;stroke-opacity:0.67213111" />
      <rect
         width="8.0291967"
         height="18.613138"
         ry="0"
         x="453.72223"
         y="84.124092"
         id="rect3859"
         style="fill:#6f0000;fill-opacity:1;stroke:none;stroke-width:1.43299997;stroke-linecap:round;stroke-miterlimit:4;stroke-dasharray:none;stroke-dashoffset:0;stroke-opacity:0" />
      <path
         d="M 463.51579,-1.5712792 L 442.33626,24.263413 L 422.7809,49.342921 L 422.21087,49.334692 L 422.48729,49.708469 L 422.34024,49.798431 L 422.41902,49.600625 L 441.67122,75.969711 L 460.81792,102.71699 L 481.68951,76.76112 L 502.36107,51.600385 L 502.61983,51.604108 L 502.49427,51.427126 L 502.48043,51.160136 L 502.14337,50.935438 L 483.44735,24.856464 L 463.51579,-1.5712792 z"
         id="path3861"
         style="fill:#cc0000;fill-opacity:1;stroke:#8d3e3e;stroke-width:1.09690964;stroke-linecap:round;stroke-linejoin:round;stroke-miterlimit:4;stroke-dasharray:none;stroke-opacity:0.67213111" />
      <path
         d="M 443.64188,75.840078 C 433.41137,62.001965 433.59422,61.710427 424.41498,50.025474 L 437.68757,32.740303 C 440.94545,28.584672 453.79409,13.237201 450.89333,16.49744 L 463.32567,1.7157608 C 469.06371,9.4654138 482.9579,27.745915 476.22731,18.549283 L 488.97188,36.199635 C 479.63223,39.314382 470.26918,45.748944 461.71869,52.942414 C 446.93843,65.37699 446.50255,74.161276 443.64188,75.840078 z"
         id="path3863"
         style="opacity:0.42918456;fill:url(#linearGradient3871);fill-opacity:1;fill-rule:evenodd;stroke:#9a2006;stroke-width:0;stroke-linecap:butt;stroke-linejoin:miter;stroke-miterlimit:4;stroke-dasharray:none;stroke-opacity:1" />
      <path
         d="M 463.29559,0.41433779 L 442.84699,25.249105 L 423.96621,49.357969 L 423.41623,49.350017 L 423.68263,49.709313 L 423.54083,49.795828 L 423.61674,49.605652 L 442.20486,74.954173 L 460.69034,100.66618 L 480.84152,75.71492 L 500.8003,51.528045 L 501.05046,51.531631 L 500.9292,51.361544 L 500.91488,51.104805 L 500.58976,50.888795 L 482.53873,25.819217 L 463.29559,0.41433779 z"
         id="path3865"
         style="fill:none;fill-opacity:1;stroke:url(#linearGradient3873);stroke-width:1.43299997;stroke-linecap:round;stroke-linejoin:round;stroke-miterlimit:4;stroke-dasharray:none;stroke-opacity:0.67213111" />
      <rect
         width="8.1291475"
         height="1.6774431"
         ry="0.83872157"
         x="415.33713"
         y="48.546753"
         id="rect3867"
         style="fill:#ffffff;fill-opacity:0.5442478;stroke:none;stroke-width:1.43299997;stroke-linecap:round;stroke-miterlimit:4;stroke-dasharray:none;stroke-dashoffset:0;stroke-opacity:0" />
    </g>
    <g
       transform="matrix(6.5971447e-2,0.139795,0.5316542,-3.4133033e-2,313.41627,200.26828)"
       id="g3687"
       style="opacity:0.13223141;fill:url(#linearGradient3721);fill-opacity:1;stroke:none">
      <path
         d="M 411.33642,109.64258 L 411.33642,108.57784 L 411.33642,109.64258 z"
         id="path3689"
         style="opacity:0.28755362;fill:url(#linearGradient3819);fill-opacity:1;fill-rule:nonzero;stroke:none;stroke-width:0.5;stroke-linecap:round;stroke-linejoin:round;stroke-miterlimit:4;stroke-dasharray:none;stroke-dashoffset:4;stroke-opacity:1" />
      <path
         d="M 456.74509,-1.4997602 L 435.56556,24.334932 L 416.0102,49.41444 L 415.44017,49.406211 L 415.71659,49.779988 L 415.56954,49.86995 L 415.64832,49.672144 L 434.90052,76.041241 L 454.04722,102.78851 L 474.91881,76.832651 L 495.59037,51.671901 L 495.84913,51.675631 L 495.72357,51.498641 L 495.70973,51.231651 L 495.37267,51.006957 L 476.67665,24.927983 L 456.74509,-1.4997602 z"
         id="path3691"
         style="fill:url(#linearGradient3821);fill-opacity:1;stroke:none;stroke-width:1.097;stroke-linecap:round;stroke-linejoin:round;stroke-miterlimit:4;stroke-dasharray:none;stroke-opacity:1" />
      <path
         d="M 457.54769,-1.4004622 L 436.36816,24.43423 L 416.8128,49.513738 L 416.24277,49.505509 L 416.51919,49.879286 L 416.37214,49.969248 L 416.45092,49.771442 L 435.70312,76.140536 L 454.84982,102.88781 L 475.72141,76.931946 L 496.39297,51.771202 L 496.65173,51.774925 L 496.52617,51.597943 L 496.51233,51.330953 L 496.17527,51.106255 L 477.47925,25.027281 L 457.54769,-1.4004622 z"
         id="path3693"
         style="fill:url(#linearGradient3823);fill-opacity:1;stroke:none;stroke-width:1.09690964;stroke-linecap:round;stroke-linejoin:round;stroke-miterlimit:4;stroke-dasharray:none;stroke-opacity:0.67213111" />
      <rect
         width="7.1167879"
         height="18.613138"
         ry="0"
         x="456.8244"
         y="-2.0072923"
         id="rect3695"
         style="fill:url(#linearGradient3825);fill-opacity:1;stroke:none;stroke-width:1.43299997;stroke-linecap:round;stroke-miterlimit:4;stroke-dasharray:none;stroke-dashoffset:0;stroke-opacity:0" />
      <path
         d="M 458.4983,-1.7537602 L 437.31877,24.080932 L 417.76341,49.16044 L 417.19338,49.152211 L 417.4698,49.525988 L 417.32275,49.61595 L 417.40153,49.418144 L 436.65373,75.787232 L 455.80043,102.5345 L 476.67202,76.578642 L 497.34358,51.417904 L 497.60234,51.421627 L 497.47678,51.244645 L 497.46294,50.977655 L 497.12588,50.752957 L 478.42986,24.673983 L 458.4983,-1.7537602 z"
         id="path3697"
         style="fill:url(#linearGradient3827);fill-opacity:1;stroke:none;stroke-width:1.09690964;stroke-linecap:round;stroke-linejoin:round;stroke-miterlimit:4;stroke-dasharray:none;stroke-opacity:0.67213111" />
      <rect
         width="8.0291967"
         height="18.613138"
         ry="0"
         x="453.72223"
         y="84.124092"
         id="rect3699"
         style="fill:url(#linearGradient3829);fill-opacity:1;stroke:none;stroke-width:1.43299997;stroke-linecap:round;stroke-miterlimit:4;stroke-dasharray:none;stroke-dashoffset:0;stroke-opacity:0" />
      <path
         d="M 463.51579,-1.5712792 L 442.33626,24.263413 L 422.7809,49.342921 L 422.21087,49.334692 L 422.48729,49.708469 L 422.34024,49.798431 L 422.41902,49.600625 L 441.67122,75.969711 L 460.81792,102.71699 L 481.68951,76.76112 L 502.36107,51.600385 L 502.61983,51.604108 L 502.49427,51.427126 L 502.48043,51.160136 L 502.14337,50.935438 L 483.44735,24.856464 L 463.51579,-1.5712792 z"
         id="path3701"
         style="fill:url(#linearGradient3831);fill-opacity:1;stroke:none;stroke-width:1.09690964;stroke-linecap:round;stroke-linejoin:round;stroke-miterlimit:4;stroke-dasharray:none;stroke-opacity:0.67213111" />
      <path
         d="M 443.64188,75.840078 C 433.41137,62.001965 433.59422,61.710427 424.41498,50.025474 L 437.68757,32.740303 C 440.94545,28.584672 453.79409,13.237201 450.89333,16.49744 L 463.32567,1.7157608 C 469.06371,9.4654138 482.9579,27.745915 476.22731,18.549283 L 488.97188,36.199635 C 479.63223,39.314382 470.26918,45.748944 461.71869,52.942414 C 446.93843,65.37699 446.50255,74.161276 443.64188,75.840078 z"
         id="path3703"
         style="opacity:0.42918456;fill:url(#linearGradient3833);fill-opacity:1;fill-rule:evenodd;stroke:none;stroke-width:0;stroke-linecap:butt;stroke-linejoin:miter;stroke-miterlimit:4;stroke-dasharray:none;stroke-opacity:1" />
      <path
         d="M 463.29559,0.41433779 L 442.84699,25.249105 L 423.96621,49.357969 L 423.41623,49.350017 L 423.68263,49.709313 L 423.54083,49.795828 L 423.61674,49.605652 L 442.20486,74.954173 L 460.69034,100.66618 L 480.84152,75.71492 L 500.8003,51.528045 L 501.05046,51.531631 L 500.9292,51.361544 L 500.91488,51.104805 L 500.58976,50.888795 L 482.53873,25.819217 L 463.29559,0.41433779 z"
         id="path3705"
         style="fill:url(#linearGradient3835);fill-opacity:1;stroke:none;stroke-width:1.43299997;stroke-linecap:round;stroke-linejoin:round;stroke-miterlimit:4;stroke-dasharray:none;stroke-opacity:0.67213111" />
      <rect
         width="8.1291475"
         height="1.6774431"
         ry="0.83872157"
         x="415.33713"
         y="48.546753"
         id="rect3707"
         style="fill:url(#linearGradient3837);fill-opacity:1;stroke:none;stroke-width:1.43299997;stroke-linecap:round;stroke-miterlimit:4;stroke-dasharray:none;stroke-dashoffset:0;stroke-opacity:0" />
    </g>
    <g
       transform="matrix(-0.8745517,-0.2711919,-0.3920775,1.2421828,781.86244,261.52091)"
       id="g8476">
      <path
         d="M 411.33642,109.64258 L 411.33642,108.57784 L 411.33642,109.64258 z"
         id="path8478"
         style="opacity:0.28755362;fill:#ffffff;fill-opacity:0.75688076;fill-rule:nonzero;stroke:none;stroke-width:0.5;stroke-linecap:round;stroke-linejoin:round;stroke-miterlimit:4;stroke-dasharray:none;stroke-dashoffset:4;stroke-opacity:1" />
      <path
         d="M 456.74509,-1.4997602 L 435.56556,24.334932 L 416.0102,49.41444 L 415.44017,49.406211 L 415.71659,49.779988 L 415.56954,49.86995 L 415.64832,49.672144 L 434.90052,76.041241 L 454.04722,102.78851 L 474.91881,76.832651 L 495.59037,51.671901 L 495.84913,51.675631 L 495.72357,51.498641 L 495.70973,51.231651 L 495.37267,51.006957 L 476.67665,24.927983 L 456.74509,-1.4997602 z"
         id="path8480"
         style="fill:#6f0000;fill-opacity:1;stroke:url(#linearGradient3069);stroke-width:1.097;stroke-linecap:round;stroke-linejoin:round;stroke-miterlimit:4;stroke-dasharray:none;stroke-opacity:1" />
      <path
         d="M 457.54769,-1.4004622 L 436.36816,24.43423 L 416.8128,49.513738 L 416.24277,49.505509 L 416.51919,49.879286 L 416.37214,49.969248 L 416.45092,49.771442 L 435.70312,76.140536 L 454.84982,102.88781 L 475.72141,76.931946 L 496.39297,51.771202 L 496.65173,51.774925 L 496.52617,51.597943 L 496.51233,51.330953 L 496.17527,51.106255 L 477.47925,25.027281 L 457.54769,-1.4004622 z"
         id="path8482"
         style="fill:#6f0000;fill-opacity:1;stroke:none;stroke-width:1.09690964;stroke-linecap:round;stroke-linejoin:round;stroke-miterlimit:4;stroke-dasharray:none;stroke-opacity:0.67213111" />
      <rect
         width="7.1167879"
         height="18.613138"
         ry="0"
         x="456.8244"
         y="-2.0072923"
         id="rect8484"
         style="fill:#6f0000;fill-opacity:1;stroke:none;stroke-width:1.43299997;stroke-linecap:round;stroke-miterlimit:4;stroke-dasharray:none;stroke-dashoffset:0;stroke-opacity:0" />
      <path
         d="M 458.4983,-1.7537602 L 437.31877,24.080932 L 417.76341,49.16044 L 417.19338,49.152211 L 417.4698,49.525988 L 417.32275,49.61595 L 417.40153,49.418144 L 436.65373,75.787232 L 455.80043,102.5345 L 476.67202,76.578642 L 497.34358,51.417904 L 497.60234,51.421627 L 497.47678,51.244645 L 497.46294,50.977655 L 497.12588,50.752957 L 478.42986,24.673983 L 458.4983,-1.7537602 z"
         id="path8486"
         style="fill:#6f0000;fill-opacity:1;stroke:none;stroke-width:1.09690964;stroke-linecap:round;stroke-linejoin:round;stroke-miterlimit:4;stroke-dasharray:none;stroke-opacity:0.67213111" />
      <rect
         width="8.0291967"
         height="18.613138"
         ry="0"
         x="453.72223"
         y="84.124092"
         id="rect8488"
         style="fill:#6f0000;fill-opacity:1;stroke:none;stroke-width:1.43299997;stroke-linecap:round;stroke-miterlimit:4;stroke-dasharray:none;stroke-dashoffset:0;stroke-opacity:0" />
      <path
         d="M 463.51579,-1.5712792 L 442.33626,24.263413 L 422.7809,49.342921 L 422.21087,49.334692 L 422.48729,49.708469 L 422.34024,49.798431 L 422.41902,49.600625 L 441.67122,75.969711 L 460.81792,102.71699 L 481.68951,76.76112 L 502.36107,51.600385 L 502.61983,51.604108 L 502.49427,51.427126 L 502.48043,51.160136 L 502.14337,50.935438 L 483.44735,24.856464 L 463.51579,-1.5712792 z"
         id="path8490"
         style="fill:#cc0000;fill-opacity:1;stroke:#8d3e3e;stroke-width:1.09690964;stroke-linecap:round;stroke-linejoin:round;stroke-miterlimit:4;stroke-dasharray:none;stroke-opacity:0.67213111" />
      <path
         d="M 443.64188,75.840078 C 433.41137,62.001965 433.59422,61.710427 424.41498,50.025474 L 437.68757,32.740303 C 440.94545,28.584672 453.79409,13.237201 450.89333,16.49744 L 463.32567,1.7157608 C 469.06371,9.4654138 482.9579,27.745915 476.22731,18.549283 L 488.97188,36.199635 C 479.63223,39.314382 470.26918,45.748944 461.71869,52.942414 C 446.93843,65.37699 446.50255,74.161276 443.64188,75.840078 z"
         id="path8492"
         style="opacity:0.42918456;fill:url(#linearGradient3071);fill-opacity:1;fill-rule:evenodd;stroke:#9a2006;stroke-width:0;stroke-linecap:butt;stroke-linejoin:miter;stroke-miterlimit:4;stroke-dasharray:none;stroke-opacity:1" />
      <path
         d="M 463.29559,0.41433779 L 442.84699,25.249105 L 423.96621,49.357969 L 423.41623,49.350017 L 423.68263,49.709313 L 423.54083,49.795828 L 423.61674,49.605652 L 442.20486,74.954173 L 460.69034,100.66618 L 480.84152,75.71492 L 500.8003,51.528045 L 501.05046,51.531631 L 500.9292,51.361544 L 500.91488,51.104805 L 500.58976,50.888795 L 482.53873,25.819217 L 463.29559,0.41433779 z"
         id="path8494"
         style="fill:none;fill-opacity:1;stroke:url(#linearGradient3073);stroke-width:1.43299997;stroke-linecap:round;stroke-linejoin:round;stroke-miterlimit:4;stroke-dasharray:none;stroke-opacity:0.67213111" />
      <rect
         width="8.1291475"
         height="1.6774431"
         ry="0.83872157"
         x="415.33713"
         y="48.546753"
         id="rect8496"
         style="fill:#ffffff;fill-opacity:0.5442478;stroke:none;stroke-width:1.43299997;stroke-linecap:round;stroke-miterlimit:4;stroke-dasharray:none;stroke-dashoffset:0;stroke-opacity:0" />
    </g>
    <path
       d="M 227.09999,161.93353 A 33.548862,67.871925 0 1 1 160.00227,161.93353 A 33.548862,67.871925 0 1 1 227.09999,161.93353 z"
       transform="matrix(0.2740564,0.2528085,-0.3941482,0.3967062,382.63216,114.56446)"
       id="path8772"
       style="opacity:0.41322315;fill:url(#radialGradient3117);fill-opacity:1;stroke:none;stroke-width:1.097;stroke-linecap:round;stroke-miterlimit:4;stroke-dasharray:none;stroke-dashoffset:0;stroke-opacity:1" />
    <path
       d="M 227.09999,161.93353 A 33.548862,67.871925 0 1 1 160.00227,161.93353 A 33.548862,67.871925 0 1 1 227.09999,161.93353 z"
       transform="matrix(0.3561602,-7.1953587e-2,0.1161711,0.4978483,299.48013,111.49594)"
       id="path3683"
       style="opacity:0.41322315;fill:url(#radialGradient3685);fill-opacity:1;stroke:none;stroke-width:1.097;stroke-linecap:round;stroke-miterlimit:4;stroke-dasharray:none;stroke-dashoffset:0;stroke-opacity:1" />
    <path
       d="M 302.4155,273.80203 A 101.37469,13.668497 0 1 1 99.66613,273.80203 A 101.37469,13.668497 0 1 1 302.4155,273.80203 z"
       transform="matrix(1.5270675,0,0,1.4791667,-61.309494,-130.20434)"
       id="path3875"
       style="opacity:0.15289259;fill:url(#radialGradient3883);fill-opacity:1;stroke:none;stroke-width:1.29999995;stroke-linecap:round;stroke-miterlimit:4;stroke-dasharray:none;stroke-dashoffset:0;stroke-opacity:1" />
  </g>
</svg>
