/* XPM */
static char * image_name[] = {
"48 48 13 1",
" 	c #514455555144",
".	c #D75CD34CDF7D",
"X	c #F7DEF7DEF7DE",
"o	c #000000000000",
"O	c #E79DDF7DE79D",
"+	c #DF7DDB6CE79D",
"@	c #FFFF7DF78617",
"#	c #FFFF00001040",
"$	c #FFFF3CF34924",
"%	c #E79DE38DDF7D",
"&	c #E79DDF7DDF7D",
"*	c #38E33CF338E3",
"=	c #79E77DF779E7",
"                     .XXXXXXX..                 ",
" ooooooooooooooooooXXXXOO+++XXXX. oooooooooooooX",
" oXXXXXXXXXXXXXXXXXXOOOO+++++++XXXXXXXXXXXXXXXXX",
" oXXXXXXXXXXXXXXXXXOOOOO++++++++++XXXXXXXXXXXXXX",
" oXXXXXXXXXXXXXXXOOOOOOO++@++++++++++XXXXXXXXXXX",
" oXXXXXXXXXXXXXXOOOOOOOO+++#@++++++++..XXXXXXXXX",
" oXXXXXXXXXXXXOOOOOOOO+++@###@@@++++.....XXXXXXX",
" oXXXXXXXXXXXXXOOOOOOO++$##$+++++++.........XXXX",
" oXXXXXXXXXXXXXOOOOOOO@###++++++++$@..........XX",
" oXXXXXXXXXXXXXOOOOOO$##$@##$@@######@.........X",
" oXXXXXXXXXXXXXOO@@@###+++##@+++......@........X",
" oXXXXXXXXXXXXOOOOO@#$++++@##++................X",
" oXXXXXXXXXXXXOOOOOOO@@++++##++................X",
" oXXXXXXXXXXXXOOOOO@@@@++++##@.................X",
" oXXXXXXXXXX@##########@+@@###.................X",
" oXXXXXXXXXXX##########+++++$#.................X",
" oXXXXXXXXXXO@#########+++++..@................X",
" oXXXXXXXXOOO@#########@+++....................X",
" oXXXXXXOOOOO@##########+++....................X",
" oOOOOOOOOOOO@####@@@@@@++.....................X",
" oOOOOOOOOOOO++++++++++++......................X",
" oOOOOOOOOO+++++++++++++.......................X",
" oOOOOOO+++++++XXXXXXXXXXXXXXXXXXXXXXXXXXXXXXXXX",
" o+++++++++++XXXXXXXXXXXXXXXXXXX%%%O%%&&&&&&&&&X",
" o++++++++++XXXXXXXXXXXXXXXXXXXX%%OO%%&&&......X",
" o+++++..++XXXXXXXXXXXXXXXXXXXXXX%O%%&&&.......X",
" o..+.....XXXXXXXXXXXXXXXXXXXXX*=%O%%&&&.......X",
" o........XXXXXXXXXXXXXXXXXXXXoo=%O%%&&........X",
" o.......XXXXXXXXXXXXXXXXXXX*=oo=%%%%&&........X",
" o......XXXXXXXXXXXXXXXXXXX=XXoo=%%O%&&........X",
" o......XXXXXXXXXXXXXXXXX==XXX*o=%%O%&&........X",
" o.....XXXXXXXXXXXXXXXXX**%%XX=o=X%O%%&&.......X",
" o....XXXXXXXXXXXXXXXX=*X=====*o*X%%O%&&&......X",
" o....XXXXXXXXXXXXXXX*XXXXXXXX=ooXX%%%%&&&....&X",
" o...XXXXXXXXXXXXX==o*XXXXXXXX*ooXXX%O%%&&&&&&&X",
" o...XXXXXXXXXXXXXXXXXXXX=XX======XXX%%O%%&&&&&X",
" o..XXXXXXXXXXXXXXXXXX=oooo=XXXXXXXXXX%%OO%%%%%X",
" o.XXXXXXXXXXXXXXXX=oooooooo*XXXXXXXXXXX%%%OOOOX",
" o.XXXXXXXXXXXXXX*ooooooooooo*XXXXXXXXXXXX%%%%%X",
" oXXXXXXXXXXXXX=oooooooooooooo=XXXXXXXXXXXXXXXXX",
" oXXXXXXXXXXXX=ooooooooooooooo=XXXXXXXXXXXXXXXXX",
" oXXXXXXXXXXXXooooooooooooooooXXXXXXXXXXXXXXXXXX",
" oXXXXXXXXXXXXoooooo*o=ooooooXXXXXXXXXXXXXXXXXXX",
" o%XXXXXXXXXXXX===XX*oXX===XXXXXXXXXXXXXXXXXXXXX",
" o%%XXXXXXXXXXXXXXXXoooXXXXXXXXXXXXXXXXXXXXXXXXX",
" o%%XXXXXXXXXXXXXXXXX=XXXXXXXXXXXXXXXXXXXXXXXXXX",
" o%%%XXXXXXXXXXXXXXXXXXXXXXXXXXXXXXXXXXXXXXXXXXX",
"XXXXXXXXXXXXXXXXXXXXXXXXXXXXXXXXXXXXXXXXXXXXXXXX"};
