/* XPM */
static char * kpat_xpm[] = {
"32 32 7 1",
" 	c None",
".	c #000000",
"+	c #FFFFFF",
"@	c #FF0000",
"#	c #C0C0C0",
"$	c #C0FFC0",
"%	c #0000FF",
" .......    .......    .......  ",
".+++++++.  .+++++++.  .+++++++. ",
".+@+++@+.. .+.+++.+.. .+@+++@+..",
".+++++++.. .+++++++.. .+++++++..",
".+++++++.. .+++++++.. .+++++++..",
".+++@+++.. .+++.+++.. .+++@+++..",
".+++++++.. .+++++++.. .+++++++..",
".+++++++.. .+++++++.. .+++++++..",
".+@+++@+.. .+.+++.+.. .+@+++@+..",
".+++++++.. .+++++++.. .+++++++..",
"..........  ......... ..........",
".#######..   .......  .#######..",
".+++++++..            .+++++++..",
".+@+++@+..  .......   .+.+++.+..",
".+++++++.. .$%$%$%$.  .+++++++..",
".......... .%$%$%$%.. ..........",
".#######.. .$%$%$%$.. .+++++++..",
".+++++++.. .%$%$%$%.. .+++++++..",
".+.+++.+.. .$%$%$%$.. .+@+++@+..",
".+++++++.. .%$%$%$%.. .+++++++..",
".......... .$%$%$%$..  .........",
".#######.. .%$%$%$%..   ....... ",
".+++++++.. .$%$%$%$..           ",
".+@+++@+..  .........           ",
".+++++++..   .......            ",
"..........                      ",
".#######..                      ",
".+++++++..                      ",
".+.+++.+..                      ",
".+++++++..                      ",
" .........                      ",
"  .......                       "};
