/* XPM */
static char *MCSolitaire[] = {
/* width height num_colors chars_per_pixel */
"    48    48      239            2",
/* colors */
".. c #fefefe",
".# c #000000",
".a c #fe0010",
".b c #545454",
".c c #fe7f87",
".d c #7f7f7f",
".e c #fafaf8",
".f c #fbfbfa",
".g c #fcfcfb",
".h c #c9c9d9",
".i c #f9f9f7",
".j c #f8f8f5",
".k c #cfcedc",
".l c #fbfbf9",
".m c #f7f7f3",
".n c #cdccdb",
".o c #f9f9f6",
".p c #d1d0dd",
".q c #3f3f3f",
".r c #fafaf9",
".s c #d2d1de",
".t c #f8f8f6",
".u c #f8f7f4",
".v c #f7f6f2",
".w c #f7f7f4",
".x c #fdfdfc",
".y c #d3d2de",
".z c #e7e6ec",
".A c #f7f7f5",
".B c #d4d3df",
".C c #d6d5e0",
".D c #faf9f7",
".E c #cecddb",
".F c #cbcada",
".G c #cbcbda",
".H c #d0cfdc",
".I c #e0dfe7",
".J c #cacada",
".K c #f6f6f4",
".L c #eae9ee",
".M c #dbdae3",
".N c #d5d4df",
".O c #f7f6f3",
".P c #faf9f8",
".Q c #e8e7e2",
".R c #d9d8e2",
".S c #f9f8f5",
".T c #d8d7e1",
".U c #dedde5",
".V c #fe3f4b",
".W c #cecddc",
".X c #fdfdfd",
".Y c #d7d6e1",
".Z c #f8f8f4",
".0 c #dfdee6",
".1 c #f6f6f3",
".2 c #dad9e3",
".3 c #fafaf7",
".4 c #fcfcfc",
".5 c #d7d5e0",
".6 c #e0dfd9",
".7 c #f2f2f4",
".8 c #dcdbd4",
".9 c #edeced",
"#. c #d4d3cb",
"## c #e4e3ea",
"#a c #f3f2f0",
"#b c #dddce4",
"#c c #d5d4cc",
"#d c #f5f4ef",
"#e c #c4c4d0",
"#f c #fafafb",
"#g c #fbfaf9",
"#h c #d5d4e0",
"#i c #d4d2de",
"#j c #ecece6",
"#k c #e8e8ed",
"#l c #ecebf0",
"#m c #f5f5f1",
"#n c #cfcec6",
"#o c #f9f8f6",
"#p c #dad9d2",
"#q c #f6f6f1",
"#r c #fcfcfa",
"#s c #f8f7f3",
"#t c #d3d2ca",
"#u c #d3d1de",
"#v c #dcdbe4",
"#w c #e3e2e9",
"#x c #f7f7f8",
"#y c #d6d4df",
"#z c #dcdbe3",
"#A c #ebebe6",
"#B c #eae9e4",
"#C c #d2d1dd",
"#D c #d1d0c7",
"#E c #efefea",
"#F c #e5e4df",
"#G c #e1e0e8",
"#H c #f4f4f0",
"#I c #f8f7f5",
"#J c #edece8",
"#K c #eeeeea",
"#L c #f1f0eb",
"#M c #cecdc5",
"#N c #ebeae6",
"#O c #e6e5e0",
"#P c #e5e4eb",
"#Q c #e9e8e3",
"#R c #d9d8d0",
"#S c #eeeef2",
"#T c #d5d3df",
"#U c #f3f3ef",
"#V c #f9f8f7",
"#W c #f0f0f3",
"#X c #e2e1e8",
"#Y c #c8c7d3",
"#Z c #e7e6eb",
"#0 c #cccbda",
"#1 c #efeee6",
"#2 c #f9f9f8",
"#3 c #dad9e2",
"#4 c #e1e1db",
"#5 c #d2d1c9",
"#6 c #f1f0f4",
"#7 c #f6f5f2",
"#8 c #d8d7e0",
"#9 c #f3f3ed",
"a. c #ddddd6",
"a# c #d0cfd9",
"aa c #d9d8e1",
"ab c #f2f2ef",
"ac c #f1f1ed",
"ad c #d6d6ce",
"ae c #c6c6c8",
"af c #cac9d5",
"ag c #ccccdb",
"ah c #dedde6",
"ai c #fefefd",
"aj c #e1e0e7",
"ak c #d7d6cf",
"al c #f3f3f4",
"am c #d8d7cf",
"an c #c7c6d2",
"ao c #f5f5f2",
"ap c #f5f5f0",
"aq c #f2f2eb",
"ar c #e8e7ed",
"as c #edede8",
"at c #f3f2ed",
"au c #e3e3dd",
"av c #d1d0de",
"aw c #d2d0dd",
"ax c #f6f6f2",
"ay c #dedce5",
"az c #f6f5f0",
"aA c #f1f1ee",
"aB c #e6e5eb",
"aC c #dfded8",
"aD c #f5f4f2",
"aE c #d2d0db",
"aF c #dbdae4",
"aG c #e4e3e9",
"aH c #dddce5",
"aI c #f0efec",
"aJ c #cfced8",
"aK c #d7d6df",
"aL c #dad8e2",
"aM c #d7d6e0",
"aN c #d2d1dc",
"aO c #f4f3f0",
"aP c #e4e3de",
"aQ c #ebebef",
"aR c #d4d2df",
"aS c #f4f3f6",
"aT c #d8d6e1",
"aU c #dddbe4",
"aV c #f2f1eb",
"aW c #dbd9e3",
"aX c #e5e4ea",
"aY c #cdcddb",
"aZ c #dbdad2",
"a0 c #f6f6f8",
"a1 c #f1f1f4",
"a2 c #d2d1c8",
"a3 c #e3e2dc",
"a4 c #f1f0e8",
"a5 c #dad9e1",
"a6 c #f9f9fa",
"a7 c #d1cfdd",
"a8 c #f8f8f9",
"a9 c #e2e1e9",
"b. c #f8f7f6",
"b# c #efeee5",
"ba c #f2f2ee",
"bb c #d4d3dd",
"bc c #fcfcfd",
"bd c #d1cfdc",
"be c #cdccd7",
"bf c #fbfaf8",
"bg c #cccbd6",
"bh c #efeff2",
"bi c #f7f6f4",
"bj c #fcfbfa",
"bk c #d0cfc7",
"bl c #f4f3f1",
"bm c #d5d4de",
"bn c #cecdd8",
"bo c #deded7",
"bp c #d3d2df",
"bq c #dbdae2",
"br c #cdccda",
"bs c #fdfcfb",
"bt c #d9d7e2",
"bu c #fefdfd",
"bv c #e1dfe7",
"bw c #d9d8d1",
"bx c #cacad9",
"by c #e5e5df",
"bz c #efeef2",
"bA c #fbfafa",
"bB c #e3e3e9",
"bC c #d4d3de",
"bD c #faf9f6",
"bE c #e6e5ec",
"bF c #d1d0c8",
"bG c #cccbdb",
"bH c #000010",
"bI c #d6d5de",
"bJ c #d3d2c9",
"bK c #dad8e1",
"bL c #f7f6f1",
"bM c #f5f3ec",
"bN c #c9c9d4",
"bO c #d8d7e2",
"bP c #e7e6e1",
"bQ c #f5f5ef",
"bR c #dedde4",
"bS c None",
/* pixels */
".b.b.b.b.b.b.b.b.b.b.b.b.b.b.b.b.b.b.b.b.bae..............aeae.b.b.b.b.b.b.b.b.b.b.b.b.b.b.b.b.b",
".b.#.#.#.#.#.#.#.#.#.#.#.#.#.#.#.#.#.#.4.4...9bv.I.0.UaH.9.9....ae.b.#.#.#.#.#.#.#.#.#.#.#.#.#..",
".b.#....................................#w#G.I.I.0.0ayaH#v.MaW..................................",
".b.#..................................###w#G.I.I.0ahaH#v#v.M.2aL.R.T............................",
".b.#...............................z#P##a9#G.I.I.0.U.c#v.M.2aL.R.TaT.Y.5.C......................",
".b.#............................ar.z#P##a9#G.I.I.0ayaU.a.c.2.Rbt.T.Y.5.C.C.N.N..................",
".b.#........................aQ.L#k.z#P###Xaj.0.0ah.c.a.a.a.c.c.c.Y.5.C.C.N#T.B.B#i..............",
".b.#......................#S#l.Lar.z#P#w#Xbv.0.0.V.a.a.V.2.R.T.Y.5.C#h.N.B.B#i.y.y#u#uaR........",
".b.#..................#6#6#S#l.Lar.z#P#w#X.I.c.a.a.aaF.2.RbOaT.Y.C#h.V.caR.y.y#u.s.s#C#C#C.y....",
".b.#................a0.7#6#S#l.Lar.zaX#w#G.V.a.a.V.c.a.a.V.c.c.a.a.a.a.a.a.c.s.saw.p.p.p.p.s.s..",
".b.#..............a8a0.7a1#S#l.L.z.c.c.c.a.a.aayaUaF.a.a.c.Y.C.C.N.Bbp.y.s.s.c.p.p.p.pa7a7a7aw..",
".b.#...........X.4a8a0.7#6#SaQ.L.zaB##.c.a.VayaH#v.M.c.a.a.5.C.N.Bbp.y.s.s.p.p.H.H.H.H.H.H.H.H..",
".bbH..........bc#fa8a0.7#W#SaQaraB#P#w#G.I.c.caUaF.2.R.a.a.C#h.BaR.y.sav.H.k.k.k.W.E.E.k.k.k.k..",
".b.#....#x#xbc.4a6a0aS#6bz#l.L.zbE##a9.c.c.c.c#vaWaLbt.a.a.c#T.B.y.sav.H.k.k.W.W.E.E.E.E.k.k.k..",
".b.#..a6#f#f#fa6#xaS.7#W.c.a.a.a.a.a.a.a.a.a.a.c.2.c.c.a.a.a.B.y.sav.H.k.k.WaY.n.n.n.n.n.n.W.k..",
".b.#aSa0#x#x#xa0aS.7#W#S#l.a.a.a.a.a.a.a.a.a.aaWaL.T.Y.C.V.a#i#u.s.p.k.W.W.n#0.G.G.G.Gag.n.n.E..",
".b.#.7alaSaSaS.7a1bh#S#l.L.c.a.a.a.a.a.a.a.a.a.2.R.TaM.C.N.B.c.s.p.k.k.W.n#0.G.F.F.F.F.Fagag.E..",
".b.#bz#W#W#W#Wbh#S#SaQ.L.z.c.a.a.a.a.a.a.a.a.a.c.T.Y.C.N.B#i#uaw.p.k.EaY#0.G.F.h.h.h.J.FbG#0.n..",
".b.##l#l#l#l#l#laQ.L#k.zaX.c.a.a.a.a.a.a.a.a.a.aaT.5.C#TbC.y#C.p.H.E.E.n.G.F.h.h.h.h.h.J.J#0.n..",
".b.#.L.L.L.L.L.Lar.zaB###w.c.a.a.a.a.c.c.c.c.c.caM.C.N.B#i#uaw.p.H.kaY.n.F.J.h.h.h.h.h.J.J.G.n..",
".b.##Z.z.z.z#ZaBaXaG#w#X.I.0.0.U#b#z.M#3aa.R.TaM.5#y#T#i.y#C.pbd.H.k.nag.F.J.h.h.h.h.h.Jbx.Gbr..",
".b.#aGaGaGbB#w#w#Xaj.I.0.U#b#b#v.M#3.M#3aa.R.TaM#y#y#T#i.y#C.pbd.H.k.nag.F.J.h.h.h.h.h.Jbx.Gbr..",
".b.#ajajaj.I.I.I.0.U#b#b#z.M.M..................................................................",
".b.#.U.U.UbR#b#b#z#zbq#3a5.........O.O#max#7#m#H#H#U#Uat#LaI#Eas#j#B#Q#Oau#4.6a..8aZ#p#R#Rbw#p..",
".b.##z#z.Mbq#3#3bKaa#8#8.....m.m.v.O.Oax#7#7#7#m#m#HaObaac#L#Eas#j#B.Q#Oau#4bo.8#pamakadadakam..",
".b.#a5aaaa#8#8aKaK.5.C.....O.m.m#s.u.w.m.O.1#7ax#m#maO#UbaacaI#K#J#B.Q#Fa3.6a.#pamad#c#.#.#cad..",
".b.#aKaK.CbIbmbmbbbb.....m.v.O.m.w.w.w.w.O.w.O.1.1#m#m#Ubaac#E.q.d#B.Qby#4aC.8bwad#.bJa2#5#t#c..",
".b.#bmbmbbaNaNaEaEaE...v.m#s.u.Z.j.j.j.j#I.wbi.w.1.1#m#H#UaA.#.#.d#N.Qby#4boaZak#.a2bkbk#Da2#t..",
".b.#aNaNaEaEa#a#aJ.....m.u.Z.S.u.j.j.j.j#o.j#I.w.w.1.1ao.q.d.#.#.d#A#Q#F#4a.#pad#tbk#n#M#n#D#5..",
".b.#aEa#aJaJbnbe.....m.u.S.u.j#o#o.o.o.o#o.t#o.j.w.w.1.d#L#J.#.#.d#j#Q#Oa3bo#pad#t#D#n#n#Mbk#5..",
".b.#aJbnbebgbgaf...m.u.u.j.S.o.i.D.3.3.3.D.i.o.t.t.d.dbM.maO.q.#.d#j#BbPauaCaZam#.#Dbk#nbkbk#t..",
".b.#bgbgafbNan....#s#s.j.S.o.o.i.D.e.e.e.P.i.e.i.q.q#Q#1.Z.j.d.#.das#A.Q#F#4a.bw#c#5bF#D#D#5#...",
".b.#afbN#Yan.....m.m.Z.SbD.o.D.ebf#g.l.l#g.r.d.q.P.d.d.d.d.d.q.#.q#K#j#B#Oa3aC.8#Rad#.#t#.#cad..",
".b.#bN#Yan#e...v#s.u.S.o.o.3.e.l.r#g.l.l#g.q.l.r.P.e#V.t.w.1.d.#.#aI#K#N#Q#F#4aC.8bwakadakambw..",
".b.##Yan#e.....v.m.Z.o.o.3bf.e.l.f.f.d.d.#.q.f.f#g.e.e#V.t.A.q.#.#ac#Eas#N.Q#Fa3.6bo.8.8.8.8a...",
".b.#anan#e..#q#q#s.S.S.D.e.e.lbj.g.gbs.x.4.g.g.f#g.d.e.P.d.d.d.d.d.dac#E#J#N#Q#OaP#4.6.6aC.6.6..",
".b.#an#e..#q#q.v.u.u.o.3.e.lbj.g.x.g.4.4.4.g.d.#.#.#.#.d#2.i.A.KaoaO#aac#K#J#A#Q.Q#O#FaPauaPaP..",
".b.#an....bQbL.v.Z.j.o.e.e.f.g.g.4.x.x.d.#.#.#.#.#.#.#.#.q.i.t#I.1aD#a#aac#Eas#J#N#B#Q.Q.Q.Q.Q..",
".b.##Y..#9#daz.v.Z.j.D.D.l#rbs.g.x.q.#.#.#.#.#.#.#.#.#.#.#.q#V.t.A.KaD#aabacaI#Kas#J#j#N#A#N#N..",
".b.#....#9#dap.v.m.j.D.e.l.g.g.d.#.#.#.#.#.#.#.#.#.#.#.#.#.#.d.tb..A.KaD#H#aabaAaIaI#K#K#Kas#K..",
".b.#..aV#9#dap.v.m.j.D.e.l.g.d.#.#.#.#.#.#.#.#.#.#.#.#.#.#.#.d.i.i#I.A.1aoaobl#aababaAaAacaIaI..",
".b.#a4aVat#9#d.v.m.j.D.e.l.g.#.#.#.#.#.#.#.#.#.#.#.#.#.#.#.#.r.e.i.i#I.A.K.KaoaDaD#H#abl#aab#a..",
".b.#a4a4aq#9#d#q.v.Z.D.3.l.g.#.#.#.#.#.#.q.#.d.#.#.#.#.#.#.f.f.e.e.i.i.t.A#I.A.K.K.K.KaoaoaoaD..",
".b.##1a4aVat#dazax.u.o.D.l#r.g.d.d.d.....q.#aiai.d.d.d.g.g.f.f.r.P.e.i.t.i.t.t.tb..A.Ab..A.Kbi..",
".b.#b##1aVaV#9ap#m.m.S.o.e.f.f.g.x.Xaiai.#.#.#.......X.x.x.g.f.f.r.P.e#2.i.i.i.i.i.i.i#V.i.t.A..",
".b.#b##1a4#Lat#dap.v.j#o.3.l#r#r.g.x.X.X.X.dai......bu.x.x.g.f.f.l.r.e#2#2#2.P.r.r.r.r.r.r.P#V..",
".b.##jb##1a4aq#U#d#q.u.j.o.e.l.f.g.g.4.x.x.Xbu.......X.x.x.g.f.l.f.l.r.r.r#g.f.f.f.f.f.f.fbA.P..",
"................................................................................................"
};
SIMPLE  =                    T                                                  
BITPIX  =                    8                                                  
NAXIS   =                    2                                                  
NAXIS1  =                   48                                                  
NAXIS2  =                   48                                                  
HISTORY Written by XV 3.10                                                      
COMMENT the GIMP was here                                                       
END                                                                             
                                                                                
                                                                                
                                                                                
                                                                                
                                                                                
                                                                                
                                                                                
                                                                                
                                                                                
                                                                                
                                                                                
                                                                                
                                                                                
                                                                                
                                                                                
                                                                                
                                                                                
                                                                                
                                                                                
                                                                                
                                                                                
                                                                                
                                                                                
                                                                                
                                                                                
                                                                                
                                                                                
                                                                                
şşşşşşşşşşşşşşşşşşşşşşşşşşşşşşşşşşşşşşşşşşşşşşşşT€ëìíïğòóõö÷øùúúûûüüüıışşşıüüûúú
úúùùùúúúúúúúúúùşT€ìíïïñóôõ÷øùúûûûüıııışşşıüüûúúúùùøøøùùùùùùùùøşT€ìíğğòôôö÷øùúúû
üııı€€€şşşıüüûúúùùùøøøøøøøøøø÷öşT€íïğñóôõöøùúûûşş?€ııûûúúùùùø÷ø÷÷÷÷öö÷öõöş
T€ïïğòóõõ÷ùùúû€€€€€€?€€€€€€€úúùùøø÷ö÷öõõõõôôôôşT€ïğñòóõö÷ùùúû€€€€€€€€€€€€€€€€ùù
øø÷öõõôôôóòóòñòşT€şğòóôõö÷ùùúû€€€€€€€€€€€€€€€øø÷öõôôóòññğğğîîşT€şşòóôõö÷ùùúûû
€€€€€€€€€€€€€€÷÷öõôóòñğîîíííìíşT€Éşòóôõ÷÷ùùúûüûü?€€€€€€€€€€€?ø÷öõôòñğîíìëëéêééş
T€Èşşôõõ÷÷øùùúûûüüü€€€€€€€€?ø÷÷õôòòğîìëéèçææææşT€ÈÅşõõõööøùùúûûüûüüüû€€€€øøöõ
ôòòğíëêçæäãââââşT€ÈÈÅşõõö÷÷ùùùúûûûüüüûûúúùùğîëéçäâàŞŞİŞŞşT€ÉÈÅşşõö÷øøùúùú
úú€?úúúùùø÷ö?€€ğîìéæãáŞÜÚÚÚÚÛşT€ÊÉÈÅşõöö÷øøùùúùúúúú?úùùùø÷öõ€€îíéçãàİÚ×ÕÔÕÖ×ş
T€ËÊÉÈşşöö÷÷øøùùúúúúúù?ù?€?íëèäáİÚ×ÔÒÑÒÓÔşT€ÍÍËÊÈşşöö÷÷øøøùùùùùøùø??çí÷÷€
ìêæãàÛ×ÓĞÏÎÎĞÒşT€ÏÏÎÍÍËşööö÷÷øøùùùùùøø÷÷òöò?€ëèåâİÙÖÒÎÎÍÎÎÑşT€ÒĞÏÏÏÎşşöö÷ö÷ø
øøøøø÷ø÷ööõïë€€ëçäáÜØÔÑÎÍÍÌÎĞşT€ÓÓÒÒĞĞÏşşöö÷÷ö÷÷÷÷ø÷÷ööõõô?€€êçãàÛØÔÑÎÍÌÍÎĞşT€ÕÕÔÓÓÒÒÒşõööö÷÷÷÷÷÷öööõõôóòğ€€éæäàÜÙÕÒÏÎÎÎÏÑşT€×××ÖÕÕÔÔşşöõõöööööõöõõõôôòñğî?èæäàİÚ×ÔÒĞÏĞÑÓşT€ÚÙÙØØ××××şşõööööööõõôõôôòòñğîíëèæãáŞÛØÖÔÓÒÒÓÔşT€ÜÜÛÛÚÚÚÙØØşşööõõõõôôôôôóòñğïîìëèæäâàÜÚØÖÕÔÔÕÖşT€ŞŞŞŞİİÜÜÛÚÚşşşşõõôõôôóóòòñïîîìëèçäâàŞÛÚÙØ×××ØşT€áááàààßŞİİÜÛÛşşşşşşşşşşşşşşşşşşşşşşşşşşşşşşşşşT€äääãããâáàßŞİİÜÛÚÛÚÙÙØ×ÖÖÕÔÔÓÒÑÑĞÎÎÌÌËËËËËÌÌÍÎşT€çççççæåäãâàßßŞİÜÛÚÙÙØ××ÖÕÔÔÓÒÑÑĞÎÎÌÌËËËËËÌÌÍÎşT€êêêêêêèçæäã«YYYY««««««××ÖÕÔÓÒÒÑĞÏÎÌÌËËËËËÌÌÍÎşT€ììììììëêèçå«YYYYYYYYYYØ××ÕÕÔÓÒÑÏÏÎÍÌËËËËËÌÌÍÎşT€îğğğğïîîëêç«YYYYYYYYY«ØØ×ÖÕÔÓÒÒĞÏÏÍÍÌËËËÌÌÍÍÎşT€òóóóóòñïîìê«YYYYYYYYYÚÙØ××ÖÕ«ÓÒĞĞÏÎÍÍÌÌÌÌÌÎÎÏşT€óö÷÷÷öóòğîìYYYYYYYYYYÛÚØØ×‚YÔÓÓÒĞÏÏÎÍÍÍÍÍÎÎÎÏşT€şùúúúù÷óòğ«YYYYYYYYYY«Ú««YYYÕÔÓÒÑĞĞÏÏÎÎÎÎÎÎÏĞşT€şş÷÷üüùöóğîìêçæäâ««««ÜÛÚÙYY«ÕÕÔÓÒÑĞĞÏÏÏÏÏÏĞĞĞşTşşşşşüúøöòğîëèæåãáà««İÛÚÙYY×ÖÕÔÔÓÒÑĞĞĞÏÏÏĞĞĞĞşT€şşşşşıüøöòğîëêçæä«Y‚ŞİÜÛ«YY××ÖÕÔÔÓÓÒÒÑÑÑÑÑÑÑÑşT€şşşşşşşøöòñîìêç«««YYYŞİÛYY«Ø××ÖÕÔÔÓÓ«ÒÒÒÒÑÑÑÒşT€şşşşşşşşöòğîìêèçåãá‚YY‚«YY‚««YYYYYY«ÓÓÒÒÒÒÒÓÓşT€şşşşşşşşşğğîìêèçåãâà«YYYÛÚÙÙØØ×Ö‚«ÔÔÔÓÓÓÓÓÓÔşşT€şşşşşşşşşşşîìêèçåãâàßß‚YY‚ÚÙØØ××ÖÖÕÕÔÔÔÓÓÔşşşşT€şşşşşşşşşşşşëêèçåäâáßßŞ«YYY«««Ø×××ÖÕÕÕÔşşşşşşşT€şşşşşşşşşşşşşşèçåäâáààßŞİY«ÚÙÙØØ×××ÖÖşşşşşşşşşT€şşşşşşşşşşşşşşşçåäâáààßŞ«ÜÛÚÚÙØØØ××şşşşşşşşşşşT€şşşşşşşşşşşşşşşşşäãáààßŞİÜÜÛÚÚÙØşşşşşşşşşşşşşşT€şşşşşşşşşşşşşşşşşşãáààßßŞİÜÛÛşşşşşşşşşşşşşşşşşT€€€€€€€€€€€€€€€€€€üüşìààßŞİììşşÆT€€€€€€€€€€€€€şTTTTTTTTTTTTTTTTTTTTTÆşşşşşşşÆÆTTTTTTTTTTTTTTTTT€€€€€€€€€€€€€€€€€€€€€€€€€€€€€€€€€€€€€€€€€€€€€€€€€€€€€€€€€€€€€€€€€€€€€€€€€€€€€€€€€€€€€€€€€€€€€€€€€€€€€€€€€€€€€€€€€€€€€€€€€€€€€€€€€€€€€€€€€€€€€€€€€€€€€€€€€€€€€€€€€€€€€€€€€€€€€€€€€€€€€€€€€€€€€€€€€€€€€€€€€€€€€€€€€€€€€€€€€€€€€€€€€€€€€€€€€€€€€€€€€€€€€€€€€€€€€€€€€€€€€€€€€€€€€€€€€€€€€€€€€€€€€€€€€€€€€€€€€€€€€€€€€€€€€€€€€€€€€€€€€€€€€€€€€€€€€€€€€€€€€€€€€€€€€€€€€€€€€€€€€€€€€€€€€€€€€€€€€€€€€€€€€€€€€€€€€€€€€€€€€€€€€€€€€€€€€€€€€€€€€€€€€€€€€€€€€€€€€€€€€€€€€€€€€€€€€€€€€€€€€€€€€€€€€€€€€€€€€€€€€€€€€€€€€€€€€€€€€€€€€€€€€€€€€€€€€€€€€€€€€€€€€€€€€€€€€€€€€€€€€€€€€€€€€€€€€€€€€€€€€€€€€€€€€€€€€€€€
