/* XPM */
static char *kpat[] = {
/* width height num_colors chars_per_pixel */
"    48    48       13            1",
/* colors */
". c #131318",
"# c #b7b5b7",
"a c #d2cede",
"b c #d6d6ce",
"c c #dfdcda",
"d c #dad6e7",
"e c #e9e5e9",
"f c #ff3c4a",
"g c #efefef",
"h c #f4f1f1",
"i c #f7f7f7",
"j c #ffffff",
"k c #000000",
/* pixels */
".....................bjjjjjjjbb.................",
".kkkkkkkkkkkkkkkkkkjjjgeedddggjjb.kkkkkkkkkkkkkj",
".kjjjjjjjjjjjjjjjjjjeeeedddddddjjjjjjjjjjjjjjjjj",
".kjjjjjjjjjjjjjjjjjeeeeeddddddddddjjjjjjjjjjjjjj",
".kjjjjjjjjjjjjjjjeeeeeeeddfddddddddddjjjjjjjjjjj",
".kjjjjjjjjjjjjjjeeeeeeeedddffddddddddaajjjjjjjjj",
".kjjjjjjjjjjjjgggeeeeedddfffffffddddaaaaajjjjjjj",
".kjjjjjjjjjjjgggeeeeeeddffffdddddddaaaaaaaaajjjj",
".kjjjjjjjjjhhgggeeeeeeffffddddddddffaaaaaaaaaajj",
".kjjjjjjjjihhgggeeeeefffffffffffffffffaaaaaaaaaj",
".kjjjjjjjjihhgggeffffffdddfffdddaaaaaafaaaaaaaaj",
".kjjjjjjjjihhgggeeefffddddfffddaaaaaaaaaaaaaaaaj",
".kjjjjjjjjihhggeeeeeeffddddffddaaaaaaaaaaaaaaaaj",
".kjjiijjjihhgggeeeeffffddddfffaaaaaaaaaaaaaaaaaj",
".kjjjjjjihhhffffffffffffdfffffaaaaaaaaaaaaaaaaaj",
".khiiiiihhhggffffffffffdddddffaaaaaaaaaaaaaaaaaj",
".khhhhhhhggggffffffffffdddddaafaaaaaaaaaaaaaaaaj",
".kghhhhgggggefffffffffffdddaaaaaaaaaaaaaaaaaaaaj",
".kgggggggggeefffffffffffdddaaaaaaaaaaaaaaaaaaaaj",
".kggggggeeeeefffffffffffddaaaaaaaaaaaaaaaaaaaaaj",
".keeeeeeeeeeeddddddddddddaaaaaaaaaaaaaaaaaaaaaaj",
".keeeeeeeeedddddddddddddaaaaaaaaaaaaaaaaaaaaaaaj",
".keeeeeedddddddjjjjjjjjjjjjjjjjjjjjjjjjjjjjjjjjj",
".kdddddddddddjjjjhhhhhhhhhhhhgggeeeecccccccccccj",
".kddddddddddjjhhhhhhhhhhhhhhhhggeeeecccccbbbbbbj",
".kdddddaaddjjhhhiihhhhhhhhhhhhgggeecccccbbbbbbbj",
".kaadaaaaajjhhhhhhhhhhhhhhhhhhg.#eecccccbbbbbbbj",
".kaaaaaaaajhhiiiiiiiihhhhhhhhhkk#eeccccbbbbbbbbj",
".kaaaaaaajjhiiiiiiiiiiihhhhh.#kk#eeccccbbbbbbbbj",
".kaaaaaajjhiiiiiiiiiiiiihhh#hgkk#eeecccbbbbbbbbj",
".kaaaaaajhiiiiiiiiiiiiiii##hhh.k#eeecccbbbbbbbbj",
".kaaaaajjiiiiiiiijjjjiji..eeii#k#geeccccbbbbbbbj",
".kaaaajjhhiiiiijjjjjjj#.j#####.k.geeeccccbbbbbbj",
".kaaaajhiiiiiijjjjjjj.jjjjiihh#kkggeecccccbbbbcj",
".kaaajjhhiiiijjjjj##k.jjjjjiih.kkhggeecccccccccj",
".kaaajhhiiiijjjjjjjjjjjjj#jj######hggeeecccccccj",
".kaajhhhiiiijjjjjjjjjj#kkkk#jihhhhhhggeeeecccccj",
".kajjhhhiiijjjjjjjj#kkkkkkkk.iiihhhhhgggeeeeeeej",
".kajhhhhiiiijjjjj.kkkkkkkkkkk.iihhhhhhggggeeeeej",
".kjjhhhhhiijjjj#kkkkkkkkkkkkkk#iihhhhhhhgggggggj",
".kjhhhhhhiijjj#kkkkkkkkkkkkkkk#iiihhhhhhhhhhhggj",
".khhhhhhhiijjjkkkkkkkkkkkkkkkkjjiiihhhhhhhhhhhhj",
".khhhhhhhiiijjkkkkkk.k#kkkkkkjjjjiiihihhhhhhhhhj",
".kehhhhhhiiijjj###jj.kjj###jjjjjjjiiiiiiihhihhhj",
".keehhhhhhiijjjjjjjjkkkjjjjjjjjjjjjjiiiiiiiiiihj",
".keehhhhhhiiijjjjjjjj#jjjjjjjjjjjjjjjjjjjjjjjjij",
".keeehhhhhiiijjjjjjjjjjjjjjjjjjjjjjjjjjjjjjjjjjj",
"jjjjjjjjjjjjjjjjjjjjjjjjjjjjjjjjjjjjjjjjjjjjjjjj"
};
