/* XPM */
static char * large_kpat_xpm[] = {
"44 44 17 1",
" 	c None",
".	c #000000",
"+	c #FFFFFF",
"@	c #FFC4C4",
"#	c #A8A8A8",
"$	c #FF0202",
"%	c #FFC6C6",
"&	c #FFF2F2",
"*	c #BBBBBB",
"=	c #BB8F8F",
"-	c #BB0000",
";	c #BB9090",
">	c #C0FFC0",
",	c #0000FF",
"'	c #7A7A7A",
")	c #F8F8F8",
"!	c #5D5D5D",
"                                            ",
"   .........     .........                  ",
"  .+@+++++@+.   .+#+++++#+.    .........    ",
"  .@$%+++@$%..  .#.#+++#.#..  .+@+++++@+.   ",
"  .&%++++&%+..  .&#++++&#+..  .@$%+++@$%..  ",
"  .+++++++++..  .+++++++++..  .&%++++&%+..  ",
"  .++++@++++..  .++++#++++..  .+++++++++..  ",
"  .+++@$%+++..  .+++#.#+++..  .++++@++++..  ",
"  .+++&%++++..  .+++&#++++..  .+++@$%+++..  ",
"  .+++++++++..  .+++++++++..  .+++&%++++..  ",
"  .+@+++++@+..  .+#+++++#+..  .+++++++++..  ",
"  .@$%+++@$%..  .#.#+++#.#..  .+@+++++@+..  ",
"  .&%++++&%+..  .&#++++&#+..  .@$%+++@$%..  ",
"  ............   ...........  .&%++++&%+..  ",
"  .***=-;***..    .........   ............  ",
"  .+++&%++++..                .***=-;***..  ",
"  .+++++++++..                .+++&%++++..  ",
"  .+@+++++@+..                .+++++++++..  ",
"  .@$%+++@$%..   .........    .+@+++++@+..  ",
"  .&%++++&%+..  .>,>,>,>,>.   .@$%+++@$%..  ",
"  ............  .,>,>,>,>,..  .&%++++&%+..  ",
"  .***'.'***..  .>,>,>,>,>..  ............  ",
"  .+++)#++++..  .,>,>,>,>,..  .***'.'***..  ",
"  .+++++++++..  .>,>,>,>,>..  .+++)#++++..  ",
"  .+#+++++#+..  .,>,>,>,>,..  .+++++++++..  ",
"  .#.#+++#.#..  .>,>,>,>,>..  .+#+++++#+..  ",
"  .)#++++)#+..  .,>,>,>,>,..  .#.#+++#.#..  ",
"  ............  .>,>,>,>,>..  .)#++++)#+..  ",
"  .***=-;***..  .,>,>,>,>,..   ...........  ",
"  .+++&%++++..  .>,>,>,>,>..    .........   ",
"  .+++++++++..   ...........                ",
"  .+@+++++@+..    .........                 ",
"  .@$%+++@$%..                              ",
"  .&%++++&%+..                              ",
"  ............                              ",
"  .***'!'***..                              ",
"  .+++)#++++..                              ",
"  .+++++++++..                              ",
"  .+#+++++#+..                              ",
"  .#.#+++#.#..                              ",
"  .)#++++)#+..                              ",
"   ...........                              ",
"    .........                               ",
"                                            "};
