<?xml version="1.0" encoding="UTF-8" standalone="no"?>
<!-- Created with Inkscape (http://www.inkscape.org/) -->

<svg
   xmlns:svg="http://www.w3.org/2000/svg"
   xmlns="http://www.w3.org/2000/svg"
   xmlns:sodipodi="http://sodipodi.sourceforge.net/DTD/sodipodi-0.dtd"
   xmlns:inkscape="http://www.inkscape.org/namespaces/inkscape"
   version="1.0"
   width="900"
   height="600"
   id="svg1"
   sodipodi:version="0.32"
   inkscape:version="0.47 r22583"
   sodipodi:docname="cleangreen.svgz"
   inkscape:output_extension="org.inkscape.output.svgz.inkscape">
  <sodipodi:namedview
     inkscape:window-height="809"
     inkscape:window-width="1152"
     inkscape:pageshadow="2"
     inkscape:pageopacity="0.0"
     guidetolerance="10.0"
     gridtolerance="10.0"
     objecttolerance="10.0"
     borderopacity="1.0"
     bordercolor="#666666"
     pagecolor="#ffffff"
     id="base"
     showgrid="false"
     inkscape:zoom="0.39848413"
     inkscape:cx="586.84468"
     inkscape:cy="321.09698"
     inkscape:window-x="1148"
     inkscape:window-y="-3"
     inkscape:current-layer="layer1"
     inkscape:window-maximized="1"
     showguides="true"
     inkscape:guide-bbox="true" />
  <defs
     id="defs1" />
  <g
     inkscape:groupmode="layer"
     id="layer1"
     inkscape:label="Layer1">
    <g
       id="background">
      <rect
         style="color:#000000;fill:#37852a;fill-opacity:1;fill-rule:evenodd;stroke:none;stroke-width:1.5;marker:none;visibility:visible;display:inline;overflow:visible;enable-background:accumulate"
         id="rect3727"
         width="900"
         height="600"
         x="0"
         y="0" />
      <path
         id="k_logo"
         d="m 818.86936,300.75624 c -3.37201,0.0822 -6.79112,0.9983 -9.9028,2.77978 L 611.18383,416.75154 c -9.9574,5.70075 -13.39738,18.43687 -7.6481,28.31143 l 89.76559,154.18703 10.57315,0 -92.1727,-158.32648 c -3.39834,-5.8368 -1.41089,-13.28102 4.41824,-16.61824 L 813.11052,311.51277 c 5.82836,-3.33688 13.32981,-1.30456 16.72815,4.53225 l 69.41133,119.2283 0,-18.1592 -61.7024,-105.99414 c -3.95265,-6.78876 -11.25987,-10.5446 -18.67824,-10.36374 z m -1.12735,37.76872 -39.0325,11.87449 -9.71997,81.21786 -33.51733,-58.31491 -30.62269,21.63393 77.05942,132.34159 29.28191,-23.14467 -32.84698,-56.44157 79.52747,37.91979 27.63661,-29.97326 -79.19235,-34.89829 11.42641,-82.21496 z m -95.21972,101.12953 c -2.60397,3.00013 -4.95433,6.15371 -7.00817,9.4875 0,-0.003 -0.0234,0.003 -0.0302,0 l -33.45648,-1.87332 c -0.90104,-0.049 -1.71979,0.52614 -1.9501,1.38988 l -5.39319,19.88146 c -0.22495,0.83815 0.17541,1.72701 0.94463,2.14526 l 29.03794,15.80244 c -0.077,5.91559 0.57753,11.86161 1.98052,17.73619 l -24.07143,21.30156 c -0.66967,0.59196 -0.81631,1.58269 -0.36565,2.35676 l 10.39033,17.82684 c 0.43916,0.75429 1.32811,1.12024 2.16344,0.87623 l 30.28737,-8.76234 c 4.79227,4.99044 10.18664,9.23523 16.02748,12.62986 l -1.82822,31.99766 c -0.0517,0.89428 0.52974,1.70393 1.40153,1.93376 l 20.04956,5.34805 c 0.84263,0.22301 1.73773,-0.17467 2.16334,-0.93666 L 778.4963,560.5144 c 6.30282,-9.7e-4 12.66189,-0.77581 18.89158,-2.4172 l 21.17681,23.56768 c 0.60004,0.668 1.60113,0.80658 2.37668,0.36258 l 18.008,-10.3033 c 0.75615,-0.43297 1.10102,-1.30629 0.85316,-2.14527 l -9.0192,-30.63798 c 4.6892,-4.667 8.65668,-9.86906 11.85289,-15.47007 l 32.7251,1.84311 c 0.90017,0.0525 1.68576,-0.52394 1.91958,-1.38989 l 5.39329,-19.91167 c 0.22738,-0.8417 -0.14479,-1.72924 -0.91411,-2.14526 l -16.91106,-9.18535 -2.28522,2.47762 c -0.33435,0.36132 -0.86458,0.48681 -1.31018,0.27194 0,0 -10.21091,-4.85114 -23.37076,-11.11911 1.10833,21.43028 -9.64471,42.67591 -29.67807,54.14524 -28.46218,16.29498 -64.83065,6.6217 -81.26423,-21.60371 -12.08925,-20.76364 -10.01152,-45.76169 3.26027,-64.02554 l -7.67851,-13.17373 z M 899.25,549.12335 811.70879,599.25 l 18.25176,0 69.28945,-39.67227 0,-10.45438 z"
         clip-path="none"
         style="color:#000000;fill:#ffffff;fill-opacity:0.05;fill-rule:evenodd;stroke:#000000;stroke-width:1.5;stroke-opacity:0.03999999;marker:none;visibility:visible;display:inline;overflow:visible;enable-background:accumulate" />
    </g>
    <rect
       style="color:#000000;fill:none;stroke:#000000;stroke-width:2.5;stroke-miterlimit:4;stroke-opacity:0.75;stroke-dasharray:none;marker:none;visibility:visible;display:inline;overflow:visible;enable-background:accumulate"
       id="pile"
       width="127.50001"
       height="177.5"
       x="11.250001"
       y="-78.75"
       ry="20"
       rx="20" />
    <rect
       style="color:#000000;fill:#68d462;fill-opacity:0.4;stroke:#000000;stroke-width:2.5;stroke-miterlimit:4;stroke-opacity:0.75;stroke-dasharray:none;marker:none;visibility:visible;display:inline;overflow:visible;enable-background:accumulate"
       id="pile_selected"
       width="127.50001"
       height="177.5"
       x="151.25"
       y="-78.75"
       ry="20"
       rx="20" />
    <rect
       style="color:#000000;fill:#49a33f;fill-opacity:1;stroke:#000000;stroke-width:3.5;stroke-miterlimit:4;stroke-opacity:0.75294118;stroke-dasharray:none;marker:none;visibility:visible;display:inline;overflow:visible;enable-background:accumulate"
       id="message_frame"
       width="646.5"
       height="246.5"
       x="-28.25"
       y="341.75"
       ry="20"
       rx="20" />
    <rect
       style="fill:#000000;fill-opacity:0.75;fill-rule:nonzero;stroke:none;stroke-width:0.40000001;marker:none;visibility:visible;display:inline;overflow:visible;enable-background:accumulate"
       id="message_text_color"
       width="250"
       height="40"
       x="170"
       y="445" />
    <g
       id="bubble">
      <rect
         y="-68.5"
         x="291.5"
         height="317"
         width="397"
         id="rect5205"
         style="color:#000000;fill:none;stroke:#000000;stroke-width:3;stroke-linecap:butt;stroke-linejoin:miter;stroke-miterlimit:4;stroke-opacity:0.00000999;stroke-dasharray:none;stroke-dashoffset:0;marker:none;visibility:visible;display:inline;overflow:visible;enable-background:accumulate" />
      <rect
         rx="20"
         ry="20"
         y="-18.75"
         x="316.25"
         height="227.49998"
         width="347.5"
         id="rect5211"
         style="color:#000000;fill:#ffffff;fill-opacity:0;stroke:#000000;stroke-width:2.5;stroke-miterlimit:4;stroke-opacity:0.75;stroke-dasharray:none;marker:none;visibility:visible;display:inline;overflow:visible;enable-background:accumulate" />
    </g>
    <rect
       style="fill:#000000;fill-opacity:0.75;fill-rule:nonzero;stroke:none;stroke-width:0;marker:none;visibility:visible;display:inline;overflow:visible;enable-background:accumulate"
       id="bubble_text_color"
       width="180"
       height="30"
       x="399.99997"
       y="-65" />
    <g
       id="bubble_hover">
      <rect
         style="color:#000000;fill:none;stroke:#000000;stroke-width:3;stroke-linecap:butt;stroke-linejoin:miter;stroke-miterlimit:4;stroke-opacity:0.00000999;stroke-dasharray:none;stroke-dashoffset:0;marker:none;visibility:visible;display:inline;overflow:visible;enable-background:accumulate"
         id="rect5205-2"
         width="397"
         height="317"
         x="701.5"
         y="-68.5" />
      <rect
         rx="19.999998"
         ry="20.000002"
         y="-18.75"
         x="726.25"
         height="227.5"
         width="347.5"
         id="rect5245"
         style="color:#000000;fill:#68d462;fill-opacity:0.4;stroke:#000000;stroke-width:2.5;stroke-miterlimit:4;stroke-opacity:0.75;stroke-dasharray:none;marker:none;visibility:visible;display:inline;overflow:visible;enable-background:accumulate" />
    </g>
    <rect
       style="fill:#000000;fill-opacity:0.75;fill-rule:nonzero;stroke:none;stroke-width:0;marker:none;visibility:visible;display:inline;overflow:visible;enable-background:accumulate"
       id="bubble_hover_text_color"
       width="180"
       height="30"
       x="820"
       y="-65" />
  </g>
</svg>
